M48
;DRILL file {Pcbnew (2013-07-07 BZR 4022)-stable} date 8/3/2013 10:48:58 AM
;FORMAT={2:4/ absolute / inch / suppress trailing zeros}
FMAT,2
INCH,LZ
T1C0.030
T2C0.032
T3C0.040
T4C0.125
T5C0.130
%
G90
G05
M72
T1
X07788Y-05241
X07988Y-05241
T2
X07031Y-04737
X07031Y-04877
X07313Y-05597
X07331Y-04737
X07331Y-04877
X07413Y-05597
X07576Y-05212
X07576Y-05312
X07632Y-05447
X07632Y-05747
X07732Y-05447
X07732Y-05747
X07832Y-05447
X07832Y-05747
X07932Y-05447
X07932Y-05747
X08032Y-05447
X08032Y-05747
X08132Y-05447
X08132Y-05747
X082Y-05212
X082Y-05312
X08232Y-05447
X08232Y-05747
X08332Y-05447
X08332Y-05747
X08336Y-05262
X08432Y-05447
X08432Y-05747
X08436Y-05262
X08532Y-05447
X08532Y-05747
X08574Y-05262
X08632Y-05447
X08632Y-05747
X08674Y-05262
X08732Y-05447
X08732Y-05747
X08832Y-05447
X08832Y-05747
X08932Y-05447
X08932Y-05747
T3
X06842Y-04368
X06842Y-04468
X06842Y-04568
X06842Y-04668
X06842Y-04768
X06842Y-04868
X07026Y-05192
X07026Y-05292
X07056Y-04384
X07056Y-04558
X07126Y-05192
X07126Y-05292
X07226Y-05192
X07226Y-05292
X07306Y-04384
X07306Y-04558
X07372Y-04158
X07472Y-04158
X07572Y-04158
X07672Y-04158
X07732Y-06058
X07772Y-04158
X07832Y-06058
X07872Y-04158
X07932Y-06058
X07972Y-04158
X08032Y-06058
X08072Y-04158
X08132Y-06058
X08232Y-04158
X08232Y-06058
X08332Y-04158
X08432Y-04158
X08432Y-06058
X08532Y-04158
X08532Y-06058
X08632Y-04158
X08632Y-06058
X08732Y-04158
X08732Y-06058
X08832Y-04158
X08832Y-06058
X08932Y-04158
X08932Y-06058
T4
X06982Y-06058
X07032Y-04158
X09032Y-04758
X09032Y-05858
T5
X06654Y-05778
X06772Y-05963
X0689Y-05778
T0
M30
