G04 (created by PCBNEW (2013-07-07 BZR 4022)-stable) date 8/3/2013 10:48:53 AM*
%MOIN*%
G04 Gerber Fmt 3.4, Leading zero omitted, Abs format*
%FSLAX34Y34*%
G01*
G70*
G90*
G04 APERTURE LIST*
%ADD10C,0.00590551*%
%ADD11R,0.06X0.06*%
%ADD12C,0.06*%
%ADD13C,0.055*%
%ADD14C,0.066*%
%ADD15O,0.062X0.09*%
%ADD16R,0.062X0.09*%
%ADD17C,0.16*%
%ADD18C,0.125*%
%ADD19C,0.056*%
%ADD20C,0.01*%
%ADD21C,0.026*%
G04 APERTURE END LIST*
G54D10*
G54D11*
X89319Y-41579D03*
G54D12*
X88319Y-41579D03*
X87319Y-41579D03*
X86319Y-41579D03*
X85319Y-41579D03*
X84319Y-41579D03*
X83319Y-41579D03*
X82319Y-41579D03*
G54D11*
X80719Y-41579D03*
G54D12*
X79719Y-41579D03*
X78719Y-41579D03*
X77719Y-41579D03*
X76719Y-41579D03*
X75719Y-41579D03*
X74719Y-41579D03*
X73719Y-41579D03*
G54D11*
X84319Y-60579D03*
G54D12*
X85319Y-60579D03*
X86319Y-60579D03*
X87319Y-60579D03*
X88319Y-60579D03*
X89319Y-60579D03*
G54D11*
X68419Y-48679D03*
G54D12*
X68419Y-47679D03*
X68419Y-46679D03*
X68419Y-45679D03*
X68419Y-44679D03*
X68419Y-43679D03*
G54D11*
X77319Y-60579D03*
G54D12*
X78319Y-60579D03*
X79319Y-60579D03*
X80319Y-60579D03*
X81319Y-60579D03*
X82319Y-60579D03*
G54D13*
X70309Y-47370D03*
X73309Y-47370D03*
X70309Y-48770D03*
X73309Y-48770D03*
G54D11*
X70259Y-52920D03*
G54D12*
X70259Y-51920D03*
X71259Y-52920D03*
X71259Y-51920D03*
X72259Y-52920D03*
X72259Y-51920D03*
G54D14*
X73129Y-55970D03*
X74129Y-55970D03*
G54D15*
X88319Y-54470D03*
X87319Y-54470D03*
X86319Y-54470D03*
X85319Y-54470D03*
X84319Y-54470D03*
X83319Y-54470D03*
X82319Y-54470D03*
X81319Y-54470D03*
X80319Y-54470D03*
X79319Y-54470D03*
X78319Y-54470D03*
X77319Y-54470D03*
X76319Y-54470D03*
G54D16*
X89319Y-54470D03*
G54D15*
X76319Y-57470D03*
X77319Y-57470D03*
X78319Y-57470D03*
X79319Y-57470D03*
X80319Y-57470D03*
X81319Y-57470D03*
X82319Y-57470D03*
X83319Y-57470D03*
X84319Y-57470D03*
X85319Y-57470D03*
X86319Y-57470D03*
X87319Y-57470D03*
X88319Y-57470D03*
X89319Y-57470D03*
G54D13*
X82000Y-52120D03*
X82000Y-53120D03*
X75759Y-52120D03*
X75759Y-53120D03*
X83359Y-52620D03*
X84359Y-52620D03*
X85739Y-52620D03*
X86739Y-52620D03*
G54D17*
X68899Y-57779D03*
X66539Y-57779D03*
X67719Y-59629D03*
G54D18*
X70320Y-41579D03*
X69819Y-60579D03*
X90319Y-47579D03*
X90319Y-58579D03*
G54D13*
X73059Y-43840D03*
X73059Y-45580D03*
X70559Y-43840D03*
X70559Y-45580D03*
G54D19*
X79879Y-52410D03*
X77879Y-52410D03*
G54D20*
X81290Y-52410D02*
X82000Y-53120D01*
X79879Y-52410D02*
X81290Y-52410D01*
X81319Y-53800D02*
X81319Y-54470D01*
X82000Y-53120D02*
X81319Y-53800D01*
X77170Y-53120D02*
X75759Y-53120D01*
X77879Y-52410D02*
X77170Y-53120D01*
X70710Y-52469D02*
X71259Y-51920D01*
X69886Y-52469D02*
X70710Y-52469D01*
X69809Y-52547D02*
X69886Y-52469D01*
X69809Y-53346D02*
X69809Y-52547D01*
X73159Y-56696D02*
X69809Y-53346D01*
X77344Y-56696D02*
X73159Y-56696D01*
X77859Y-57211D02*
X77344Y-56696D01*
X77859Y-57470D02*
X77859Y-57211D01*
X78319Y-57470D02*
X77859Y-57470D01*
X70709Y-53032D02*
X70709Y-52920D01*
X72570Y-54892D02*
X70709Y-53032D01*
X73778Y-54892D02*
X72570Y-54892D01*
X75382Y-56496D02*
X73778Y-54892D01*
X78144Y-56496D02*
X75382Y-56496D01*
X78859Y-57211D02*
X78144Y-56496D01*
X78859Y-57470D02*
X78859Y-57211D01*
X79319Y-57470D02*
X78859Y-57470D01*
X70259Y-52920D02*
X70709Y-52920D01*
X80319Y-57470D02*
X79859Y-57470D01*
X72755Y-54416D02*
X71259Y-52920D01*
X73684Y-54416D02*
X72755Y-54416D01*
X74475Y-55206D02*
X73684Y-54416D01*
X77855Y-55206D02*
X74475Y-55206D01*
X79859Y-57211D02*
X77855Y-55206D01*
X79859Y-57470D02*
X79859Y-57211D01*
X70559Y-43840D02*
X73059Y-43840D01*
X77319Y-60579D02*
X77769Y-60579D01*
X78336Y-53337D02*
X78336Y-53337D01*
X78198Y-53337D02*
X78336Y-53337D01*
X77971Y-53565D02*
X78198Y-53337D01*
X72904Y-53565D02*
X77971Y-53565D01*
X72259Y-52920D02*
X72904Y-53565D01*
X77769Y-60692D02*
X77769Y-60579D01*
X78107Y-61030D02*
X77769Y-60692D01*
X79535Y-61030D02*
X78107Y-61030D01*
X79819Y-60745D02*
X79535Y-61030D01*
X79819Y-60379D02*
X79819Y-60745D01*
X80790Y-59409D02*
X79819Y-60379D01*
X80790Y-56745D02*
X80790Y-59409D01*
X78819Y-54775D02*
X80790Y-56745D01*
X78819Y-53820D02*
X78819Y-54775D01*
X78336Y-53337D02*
X78819Y-53820D01*
X84807Y-51688D02*
X85739Y-52620D01*
X79986Y-51688D02*
X84807Y-51688D01*
X78336Y-53337D02*
X79986Y-51688D01*
X86482Y-53362D02*
X85739Y-52620D01*
X88010Y-53362D02*
X86482Y-53362D01*
X88859Y-54211D02*
X88010Y-53362D01*
X88859Y-54470D02*
X88859Y-54211D01*
X89319Y-54470D02*
X88859Y-54470D01*
X88869Y-41692D02*
X88869Y-41579D01*
X85406Y-45155D02*
X88869Y-41692D01*
X68944Y-45155D02*
X85406Y-45155D01*
X68419Y-45679D02*
X68944Y-45155D01*
X89319Y-41579D02*
X88869Y-41579D01*
X85219Y-44679D02*
X68419Y-44679D01*
X88319Y-41579D02*
X85219Y-44679D01*
G54D21*
X69719Y-58599D02*
X68899Y-57779D01*
X77339Y-58599D02*
X69719Y-58599D01*
X79319Y-60579D02*
X77339Y-58599D01*
X70833Y-51346D02*
X70833Y-48070D01*
X70259Y-51920D02*
X70833Y-51346D01*
X72609Y-48070D02*
X70833Y-48070D01*
X73309Y-47370D02*
X72609Y-48070D01*
X69809Y-48070D02*
X68419Y-46679D01*
X70833Y-48070D02*
X69809Y-48070D01*
X81319Y-56470D02*
X83319Y-54470D01*
X81319Y-57470D02*
X81319Y-56470D01*
X83359Y-53749D02*
X83359Y-52620D01*
X83319Y-53789D02*
X83359Y-53749D01*
X83319Y-54470D02*
X83319Y-53789D01*
X70559Y-45580D02*
X73059Y-45580D01*
X72459Y-52120D02*
X72259Y-51920D01*
X75759Y-52120D02*
X72459Y-52120D01*
X81319Y-60579D02*
X80319Y-60579D01*
X82319Y-54470D02*
X82319Y-53789D01*
X83062Y-52094D02*
X82518Y-52638D01*
X83834Y-52094D02*
X83062Y-52094D01*
X84359Y-52620D02*
X83834Y-52094D01*
X82518Y-53591D02*
X82518Y-52638D01*
X82319Y-53789D02*
X82518Y-53591D01*
X82518Y-52638D02*
X82000Y-52120D01*
G54D20*
X67965Y-44134D02*
X68419Y-43679D01*
X67965Y-45874D02*
X67965Y-44134D01*
X68270Y-46179D02*
X67965Y-45874D01*
X80299Y-46179D02*
X68270Y-46179D01*
X86739Y-52620D02*
X80299Y-46179D01*
G54D10*
G36*
X75099Y-56496D02*
X74386Y-56496D01*
X74435Y-56476D01*
X74466Y-56377D01*
X74129Y-56040D01*
X73792Y-56377D01*
X73824Y-56476D01*
X73880Y-56496D01*
X73242Y-56496D01*
X73196Y-56450D01*
X73224Y-56450D01*
X73401Y-56377D01*
X73536Y-56242D01*
X73573Y-56153D01*
X73623Y-56275D01*
X73722Y-56307D01*
X74059Y-55970D01*
X73722Y-55633D01*
X73623Y-55664D01*
X73576Y-55794D01*
X73537Y-55698D01*
X73402Y-55563D01*
X73225Y-55490D01*
X73034Y-55489D01*
X72858Y-55562D01*
X72723Y-55697D01*
X72650Y-55874D01*
X72649Y-55904D01*
X70116Y-53370D01*
X70589Y-53370D01*
X70644Y-53347D01*
X70686Y-53305D01*
X70690Y-53296D01*
X72428Y-55034D01*
X72493Y-55077D01*
X72493Y-55077D01*
X72506Y-55080D01*
X72570Y-55092D01*
X73695Y-55092D01*
X73998Y-55395D01*
X73988Y-55395D01*
X73824Y-55463D01*
X73792Y-55562D01*
X74129Y-55899D01*
X74135Y-55893D01*
X74206Y-55964D01*
X74200Y-55970D01*
X74537Y-56307D01*
X74636Y-56275D01*
X74700Y-56097D01*
X75099Y-56496D01*
X75099Y-56496D01*
G37*
G54D20*
X75099Y-56496D02*
X74386Y-56496D01*
X74435Y-56476D01*
X74466Y-56377D01*
X74129Y-56040D01*
X73792Y-56377D01*
X73824Y-56476D01*
X73880Y-56496D01*
X73242Y-56496D01*
X73196Y-56450D01*
X73224Y-56450D01*
X73401Y-56377D01*
X73536Y-56242D01*
X73573Y-56153D01*
X73623Y-56275D01*
X73722Y-56307D01*
X74059Y-55970D01*
X73722Y-55633D01*
X73623Y-55664D01*
X73576Y-55794D01*
X73537Y-55698D01*
X73402Y-55563D01*
X73225Y-55490D01*
X73034Y-55489D01*
X72858Y-55562D01*
X72723Y-55697D01*
X72650Y-55874D01*
X72649Y-55904D01*
X70116Y-53370D01*
X70589Y-53370D01*
X70644Y-53347D01*
X70686Y-53305D01*
X70690Y-53296D01*
X72428Y-55034D01*
X72493Y-55077D01*
X72493Y-55077D01*
X72506Y-55080D01*
X72570Y-55092D01*
X73695Y-55092D01*
X73998Y-55395D01*
X73988Y-55395D01*
X73824Y-55463D01*
X73792Y-55562D01*
X74129Y-55899D01*
X74135Y-55893D01*
X74206Y-55964D01*
X74200Y-55970D01*
X74537Y-56307D01*
X74636Y-56275D01*
X74700Y-56097D01*
X75099Y-56496D01*
G54D10*
G36*
X91140Y-59489D02*
X91094Y-59535D01*
X91094Y-58426D01*
X91094Y-47426D01*
X90977Y-47141D01*
X90759Y-46923D01*
X90474Y-46805D01*
X90166Y-46804D01*
X89881Y-46922D01*
X89663Y-47140D01*
X89544Y-47425D01*
X89544Y-47733D01*
X89662Y-48018D01*
X89880Y-48236D01*
X90164Y-48354D01*
X90473Y-48355D01*
X90758Y-48237D01*
X90976Y-48019D01*
X91094Y-47734D01*
X91094Y-47426D01*
X91094Y-58426D01*
X90977Y-58141D01*
X90759Y-57923D01*
X90474Y-57805D01*
X90166Y-57804D01*
X89881Y-57922D01*
X89779Y-58023D01*
X89779Y-54890D01*
X89779Y-53990D01*
X89756Y-53935D01*
X89714Y-53892D01*
X89659Y-53870D01*
X89599Y-53870D01*
X88979Y-53870D01*
X88924Y-53892D01*
X88882Y-53934D01*
X88877Y-53946D01*
X88152Y-53220D01*
X88087Y-53177D01*
X88010Y-53162D01*
X86564Y-53162D01*
X86147Y-52745D01*
X86164Y-52704D01*
X86164Y-52535D01*
X86100Y-52379D01*
X85980Y-52259D01*
X85824Y-52195D01*
X85655Y-52195D01*
X85614Y-52211D01*
X84949Y-51546D01*
X84884Y-51503D01*
X84807Y-51488D01*
X79986Y-51488D01*
X79909Y-51503D01*
X79888Y-51517D01*
X79844Y-51546D01*
X78253Y-53137D01*
X78198Y-53137D01*
X78134Y-53150D01*
X78122Y-53153D01*
X78057Y-53196D01*
X77888Y-53365D01*
X76116Y-53365D01*
X76119Y-53361D01*
X76136Y-53320D01*
X77170Y-53320D01*
X77246Y-53304D01*
X77311Y-53261D01*
X77750Y-52822D01*
X77794Y-52840D01*
X77965Y-52840D01*
X78123Y-52774D01*
X78244Y-52654D01*
X78309Y-52496D01*
X78309Y-52325D01*
X78244Y-52166D01*
X78123Y-52045D01*
X77965Y-51980D01*
X77794Y-51980D01*
X77636Y-52045D01*
X77515Y-52166D01*
X77449Y-52324D01*
X77449Y-52495D01*
X77467Y-52539D01*
X77087Y-52920D01*
X76289Y-52920D01*
X76289Y-52195D01*
X76278Y-51987D01*
X76220Y-51847D01*
X76127Y-51822D01*
X76056Y-51893D01*
X76056Y-51752D01*
X76032Y-51659D01*
X75835Y-51590D01*
X75627Y-51601D01*
X75487Y-51659D01*
X75462Y-51752D01*
X75759Y-52049D01*
X76056Y-51752D01*
X76056Y-51893D01*
X75830Y-52120D01*
X76127Y-52417D01*
X76220Y-52392D01*
X76289Y-52195D01*
X76289Y-52920D01*
X76137Y-52920D01*
X76120Y-52879D01*
X76056Y-52816D01*
X76056Y-52487D01*
X75759Y-52190D01*
X75689Y-52261D01*
X75689Y-52120D01*
X75392Y-51822D01*
X75299Y-51847D01*
X75229Y-52044D01*
X75241Y-52252D01*
X75299Y-52392D01*
X75392Y-52417D01*
X75689Y-52120D01*
X75689Y-52261D01*
X75462Y-52487D01*
X75487Y-52580D01*
X75684Y-52649D01*
X75892Y-52638D01*
X76032Y-52580D01*
X76056Y-52487D01*
X76056Y-52816D01*
X76000Y-52759D01*
X75844Y-52695D01*
X75675Y-52695D01*
X75519Y-52759D01*
X75399Y-52879D01*
X75334Y-53035D01*
X75334Y-53204D01*
X75399Y-53360D01*
X75403Y-53365D01*
X73734Y-53365D01*
X73734Y-48685D01*
X73670Y-48529D01*
X73550Y-48409D01*
X73394Y-48345D01*
X73225Y-48345D01*
X73069Y-48409D01*
X72949Y-48529D01*
X72884Y-48685D01*
X72884Y-48854D01*
X72949Y-49010D01*
X73068Y-49130D01*
X73224Y-49195D01*
X73394Y-49195D01*
X73550Y-49130D01*
X73669Y-49011D01*
X73734Y-48854D01*
X73734Y-48685D01*
X73734Y-53365D01*
X72987Y-53365D01*
X72814Y-53192D01*
X72814Y-52001D01*
X72803Y-51783D01*
X72741Y-51632D01*
X72645Y-51604D01*
X72575Y-51675D01*
X72575Y-51534D01*
X72547Y-51438D01*
X72341Y-51365D01*
X72123Y-51376D01*
X71971Y-51438D01*
X71944Y-51534D01*
X72259Y-51849D01*
X72575Y-51534D01*
X72575Y-51675D01*
X72330Y-51920D01*
X72645Y-52235D01*
X72741Y-52207D01*
X72814Y-52001D01*
X72814Y-53192D01*
X72687Y-53064D01*
X72709Y-53009D01*
X72709Y-52830D01*
X72641Y-52665D01*
X72515Y-52538D01*
X72349Y-52470D01*
X72273Y-52470D01*
X72396Y-52463D01*
X72547Y-52401D01*
X72575Y-52305D01*
X72259Y-51990D01*
X71944Y-52305D01*
X71971Y-52401D01*
X72167Y-52471D01*
X72005Y-52538D01*
X71878Y-52664D01*
X71809Y-52830D01*
X71809Y-53009D01*
X71878Y-53174D01*
X72004Y-53301D01*
X72169Y-53370D01*
X72348Y-53370D01*
X72404Y-53347D01*
X72763Y-53706D01*
X72828Y-53749D01*
X72828Y-53749D01*
X72840Y-53752D01*
X72904Y-53765D01*
X77971Y-53765D01*
X78048Y-53749D01*
X78113Y-53706D01*
X78267Y-53551D01*
X78619Y-53903D01*
X78619Y-53976D01*
X78495Y-53893D01*
X78319Y-53858D01*
X78143Y-53893D01*
X77994Y-53993D01*
X77894Y-54142D01*
X77859Y-54318D01*
X77859Y-54621D01*
X77894Y-54797D01*
X77994Y-54947D01*
X78143Y-55046D01*
X78319Y-55081D01*
X78495Y-55046D01*
X78644Y-54947D01*
X78671Y-54906D01*
X78678Y-54916D01*
X80590Y-56828D01*
X80590Y-56956D01*
X80495Y-56893D01*
X80319Y-56858D01*
X80143Y-56893D01*
X79994Y-56993D01*
X79966Y-57035D01*
X77996Y-55065D01*
X77931Y-55022D01*
X77855Y-55006D01*
X77555Y-55006D01*
X77644Y-54947D01*
X77744Y-54797D01*
X77779Y-54621D01*
X77779Y-54318D01*
X77744Y-54142D01*
X77644Y-53993D01*
X77495Y-53893D01*
X77319Y-53858D01*
X77143Y-53893D01*
X76994Y-53993D01*
X76894Y-54142D01*
X76859Y-54318D01*
X76859Y-54621D01*
X76894Y-54797D01*
X76994Y-54947D01*
X77083Y-55006D01*
X76555Y-55006D01*
X76644Y-54947D01*
X76744Y-54797D01*
X76779Y-54621D01*
X76779Y-54318D01*
X76744Y-54142D01*
X76644Y-53993D01*
X76495Y-53893D01*
X76319Y-53858D01*
X76143Y-53893D01*
X75994Y-53993D01*
X75894Y-54142D01*
X75859Y-54318D01*
X75859Y-54621D01*
X75894Y-54797D01*
X75994Y-54947D01*
X76083Y-55006D01*
X74558Y-55006D01*
X73826Y-54274D01*
X73761Y-54231D01*
X73684Y-54216D01*
X72838Y-54216D01*
X71687Y-53064D01*
X71709Y-53009D01*
X71709Y-52830D01*
X71641Y-52665D01*
X71515Y-52538D01*
X71349Y-52470D01*
X71170Y-52470D01*
X71005Y-52538D01*
X70878Y-52664D01*
X70835Y-52768D01*
X70786Y-52735D01*
X70709Y-52720D01*
X70709Y-52720D01*
X70709Y-52669D01*
X70710Y-52669D01*
X70786Y-52654D01*
X70851Y-52611D01*
X71115Y-52347D01*
X71169Y-52370D01*
X71348Y-52370D01*
X71514Y-52301D01*
X71641Y-52175D01*
X71709Y-52009D01*
X71709Y-51933D01*
X71716Y-52056D01*
X71778Y-52207D01*
X71873Y-52235D01*
X72189Y-51920D01*
X71873Y-51604D01*
X71778Y-51632D01*
X71708Y-51828D01*
X71641Y-51665D01*
X71515Y-51538D01*
X71349Y-51470D01*
X71170Y-51470D01*
X71047Y-51521D01*
X71072Y-51483D01*
X71092Y-51453D01*
X71092Y-51453D01*
X71113Y-51346D01*
X71113Y-51346D01*
X71113Y-48350D01*
X72609Y-48350D01*
X72716Y-48328D01*
X72716Y-48328D01*
X72807Y-48268D01*
X73280Y-47795D01*
X73394Y-47795D01*
X73550Y-47730D01*
X73669Y-47611D01*
X73734Y-47454D01*
X73734Y-47285D01*
X73670Y-47129D01*
X73550Y-47009D01*
X73394Y-46945D01*
X73225Y-46945D01*
X73069Y-47009D01*
X72949Y-47129D01*
X72884Y-47285D01*
X72884Y-47399D01*
X72493Y-47790D01*
X70833Y-47790D01*
X70406Y-47790D01*
X70550Y-47730D01*
X70669Y-47611D01*
X70734Y-47454D01*
X70734Y-47285D01*
X70670Y-47129D01*
X70550Y-47009D01*
X70394Y-46945D01*
X70225Y-46945D01*
X70069Y-47009D01*
X69949Y-47129D01*
X69884Y-47285D01*
X69884Y-47454D01*
X69949Y-47610D01*
X70068Y-47730D01*
X70213Y-47790D01*
X69925Y-47790D01*
X68869Y-46733D01*
X68869Y-46590D01*
X68801Y-46425D01*
X68756Y-46379D01*
X80216Y-46379D01*
X86331Y-52494D01*
X86314Y-52535D01*
X86314Y-52704D01*
X86379Y-52860D01*
X86498Y-52980D01*
X86654Y-53045D01*
X86823Y-53045D01*
X86980Y-52980D01*
X87099Y-52861D01*
X87164Y-52704D01*
X87164Y-52535D01*
X87100Y-52379D01*
X86980Y-52259D01*
X86824Y-52195D01*
X86655Y-52195D01*
X86614Y-52211D01*
X80441Y-46038D01*
X80376Y-45995D01*
X80299Y-45979D01*
X73348Y-45979D01*
X73356Y-45948D01*
X73059Y-45650D01*
X72762Y-45948D01*
X72771Y-45979D01*
X70848Y-45979D01*
X70856Y-45948D01*
X70559Y-45650D01*
X70262Y-45948D01*
X70271Y-45979D01*
X68756Y-45979D01*
X68800Y-45935D01*
X68869Y-45769D01*
X68869Y-45590D01*
X68846Y-45535D01*
X69027Y-45355D01*
X70082Y-45355D01*
X70029Y-45504D01*
X70041Y-45712D01*
X70099Y-45853D01*
X70192Y-45877D01*
X70489Y-45580D01*
X70483Y-45574D01*
X70554Y-45503D01*
X70559Y-45509D01*
X70565Y-45503D01*
X70636Y-45574D01*
X70630Y-45580D01*
X70927Y-45877D01*
X71020Y-45853D01*
X71089Y-45656D01*
X71078Y-45447D01*
X71040Y-45355D01*
X72582Y-45355D01*
X72529Y-45504D01*
X72541Y-45712D01*
X72599Y-45853D01*
X72692Y-45877D01*
X72989Y-45580D01*
X72983Y-45574D01*
X73054Y-45503D01*
X73059Y-45509D01*
X73065Y-45503D01*
X73136Y-45574D01*
X73130Y-45580D01*
X73427Y-45877D01*
X73520Y-45853D01*
X73589Y-45656D01*
X73578Y-45447D01*
X73540Y-45355D01*
X85406Y-45355D01*
X85483Y-45339D01*
X85548Y-45296D01*
X88888Y-41956D01*
X88892Y-41964D01*
X88934Y-42007D01*
X88989Y-42029D01*
X89049Y-42029D01*
X89649Y-42029D01*
X89704Y-42007D01*
X89746Y-41965D01*
X89769Y-41909D01*
X89769Y-41850D01*
X89769Y-41250D01*
X89746Y-41195D01*
X89704Y-41152D01*
X89649Y-41129D01*
X89589Y-41129D01*
X88989Y-41129D01*
X88934Y-41152D01*
X88892Y-41194D01*
X88869Y-41249D01*
X88869Y-41309D01*
X88869Y-41379D01*
X88869Y-41379D01*
X88793Y-41395D01*
X88743Y-41428D01*
X88701Y-41325D01*
X88574Y-41198D01*
X88409Y-41130D01*
X88230Y-41129D01*
X88065Y-41198D01*
X87938Y-41324D01*
X87869Y-41490D01*
X87869Y-41669D01*
X87892Y-41724D01*
X87769Y-41847D01*
X87769Y-41490D01*
X87701Y-41325D01*
X87574Y-41198D01*
X87409Y-41130D01*
X87230Y-41129D01*
X87065Y-41198D01*
X86938Y-41324D01*
X86869Y-41490D01*
X86869Y-41669D01*
X86937Y-41834D01*
X87064Y-41961D01*
X87229Y-42029D01*
X87408Y-42029D01*
X87574Y-41961D01*
X87700Y-41835D01*
X87769Y-41669D01*
X87769Y-41490D01*
X87769Y-41847D01*
X86769Y-42847D01*
X86769Y-41490D01*
X86701Y-41325D01*
X86574Y-41198D01*
X86409Y-41130D01*
X86230Y-41129D01*
X86065Y-41198D01*
X85938Y-41324D01*
X85869Y-41490D01*
X85869Y-41669D01*
X85937Y-41834D01*
X86064Y-41961D01*
X86229Y-42029D01*
X86408Y-42029D01*
X86574Y-41961D01*
X86700Y-41835D01*
X86769Y-41669D01*
X86769Y-41490D01*
X86769Y-42847D01*
X85769Y-43847D01*
X85769Y-41490D01*
X85701Y-41325D01*
X85574Y-41198D01*
X85409Y-41130D01*
X85230Y-41129D01*
X85065Y-41198D01*
X84938Y-41324D01*
X84869Y-41490D01*
X84869Y-41669D01*
X84937Y-41834D01*
X85064Y-41961D01*
X85229Y-42029D01*
X85408Y-42029D01*
X85574Y-41961D01*
X85700Y-41835D01*
X85769Y-41669D01*
X85769Y-41490D01*
X85769Y-43847D01*
X85136Y-44479D01*
X84769Y-44479D01*
X84769Y-41490D01*
X84701Y-41325D01*
X84574Y-41198D01*
X84409Y-41130D01*
X84230Y-41129D01*
X84065Y-41198D01*
X83938Y-41324D01*
X83869Y-41490D01*
X83869Y-41669D01*
X83937Y-41834D01*
X84064Y-41961D01*
X84229Y-42029D01*
X84408Y-42029D01*
X84574Y-41961D01*
X84700Y-41835D01*
X84769Y-41669D01*
X84769Y-41490D01*
X84769Y-44479D01*
X83769Y-44479D01*
X83769Y-41490D01*
X83701Y-41325D01*
X83574Y-41198D01*
X83409Y-41130D01*
X83230Y-41129D01*
X83065Y-41198D01*
X82938Y-41324D01*
X82869Y-41490D01*
X82869Y-41669D01*
X82937Y-41834D01*
X83064Y-41961D01*
X83229Y-42029D01*
X83408Y-42029D01*
X83574Y-41961D01*
X83700Y-41835D01*
X83769Y-41669D01*
X83769Y-41490D01*
X83769Y-44479D01*
X82769Y-44479D01*
X82769Y-41490D01*
X82701Y-41325D01*
X82574Y-41198D01*
X82409Y-41130D01*
X82230Y-41129D01*
X82065Y-41198D01*
X81938Y-41324D01*
X81869Y-41490D01*
X81869Y-41669D01*
X81937Y-41834D01*
X82064Y-41961D01*
X82229Y-42029D01*
X82408Y-42029D01*
X82574Y-41961D01*
X82700Y-41835D01*
X82769Y-41669D01*
X82769Y-41490D01*
X82769Y-44479D01*
X81169Y-44479D01*
X81169Y-41850D01*
X81169Y-41250D01*
X81146Y-41195D01*
X81104Y-41152D01*
X81049Y-41129D01*
X80989Y-41129D01*
X80389Y-41129D01*
X80334Y-41152D01*
X80292Y-41194D01*
X80269Y-41249D01*
X80269Y-41309D01*
X80269Y-41909D01*
X80292Y-41964D01*
X80334Y-42007D01*
X80389Y-42029D01*
X80449Y-42029D01*
X81049Y-42029D01*
X81104Y-42007D01*
X81146Y-41965D01*
X81169Y-41909D01*
X81169Y-41850D01*
X81169Y-44479D01*
X80169Y-44479D01*
X80169Y-41490D01*
X80101Y-41325D01*
X79974Y-41198D01*
X79809Y-41130D01*
X79630Y-41129D01*
X79465Y-41198D01*
X79338Y-41324D01*
X79269Y-41490D01*
X79269Y-41669D01*
X79337Y-41834D01*
X79464Y-41961D01*
X79629Y-42029D01*
X79808Y-42029D01*
X79974Y-41961D01*
X80100Y-41835D01*
X80169Y-41669D01*
X80169Y-41490D01*
X80169Y-44479D01*
X79169Y-44479D01*
X79169Y-41490D01*
X79101Y-41325D01*
X78974Y-41198D01*
X78809Y-41130D01*
X78630Y-41129D01*
X78465Y-41198D01*
X78338Y-41324D01*
X78269Y-41490D01*
X78269Y-41669D01*
X78337Y-41834D01*
X78464Y-41961D01*
X78629Y-42029D01*
X78808Y-42029D01*
X78974Y-41961D01*
X79100Y-41835D01*
X79169Y-41669D01*
X79169Y-41490D01*
X79169Y-44479D01*
X78169Y-44479D01*
X78169Y-41490D01*
X78101Y-41325D01*
X77974Y-41198D01*
X77809Y-41130D01*
X77630Y-41129D01*
X77465Y-41198D01*
X77338Y-41324D01*
X77269Y-41490D01*
X77269Y-41669D01*
X77337Y-41834D01*
X77464Y-41961D01*
X77629Y-42029D01*
X77808Y-42029D01*
X77974Y-41961D01*
X78100Y-41835D01*
X78169Y-41669D01*
X78169Y-41490D01*
X78169Y-44479D01*
X77169Y-44479D01*
X77169Y-41490D01*
X77101Y-41325D01*
X76974Y-41198D01*
X76809Y-41130D01*
X76630Y-41129D01*
X76465Y-41198D01*
X76338Y-41324D01*
X76269Y-41490D01*
X76269Y-41669D01*
X76337Y-41834D01*
X76464Y-41961D01*
X76629Y-42029D01*
X76808Y-42029D01*
X76974Y-41961D01*
X77100Y-41835D01*
X77169Y-41669D01*
X77169Y-41490D01*
X77169Y-44479D01*
X76169Y-44479D01*
X76169Y-41490D01*
X76101Y-41325D01*
X75974Y-41198D01*
X75809Y-41130D01*
X75630Y-41129D01*
X75465Y-41198D01*
X75338Y-41324D01*
X75269Y-41490D01*
X75269Y-41566D01*
X75263Y-41443D01*
X75200Y-41292D01*
X75105Y-41264D01*
X75034Y-41335D01*
X75034Y-41194D01*
X75007Y-41098D01*
X74801Y-41025D01*
X74582Y-41036D01*
X74431Y-41098D01*
X74404Y-41194D01*
X74719Y-41509D01*
X75034Y-41194D01*
X75034Y-41335D01*
X74790Y-41579D01*
X75105Y-41895D01*
X75200Y-41867D01*
X75270Y-41671D01*
X75337Y-41834D01*
X75464Y-41961D01*
X75629Y-42029D01*
X75808Y-42029D01*
X75974Y-41961D01*
X76100Y-41835D01*
X76169Y-41669D01*
X76169Y-41490D01*
X76169Y-44479D01*
X75034Y-44479D01*
X75034Y-41965D01*
X74719Y-41650D01*
X74648Y-41721D01*
X74648Y-41579D01*
X74333Y-41264D01*
X74238Y-41292D01*
X74168Y-41487D01*
X74101Y-41325D01*
X73974Y-41198D01*
X73809Y-41130D01*
X73630Y-41129D01*
X73465Y-41198D01*
X73338Y-41324D01*
X73269Y-41490D01*
X73269Y-41669D01*
X73337Y-41834D01*
X73464Y-41961D01*
X73629Y-42029D01*
X73808Y-42029D01*
X73974Y-41961D01*
X74100Y-41835D01*
X74169Y-41669D01*
X74169Y-41593D01*
X74175Y-41716D01*
X74238Y-41867D01*
X74333Y-41895D01*
X74648Y-41579D01*
X74648Y-41721D01*
X74404Y-41965D01*
X74431Y-42061D01*
X74637Y-42134D01*
X74856Y-42123D01*
X75007Y-42061D01*
X75034Y-41965D01*
X75034Y-44479D01*
X73484Y-44479D01*
X73484Y-43756D01*
X73420Y-43599D01*
X73300Y-43480D01*
X73144Y-43415D01*
X72975Y-43415D01*
X72819Y-43479D01*
X72699Y-43599D01*
X72682Y-43640D01*
X71095Y-43640D01*
X71095Y-41426D01*
X70977Y-41141D01*
X70759Y-40923D01*
X70474Y-40805D01*
X70166Y-40804D01*
X69881Y-40922D01*
X69663Y-41140D01*
X69545Y-41425D01*
X69544Y-41733D01*
X69662Y-42018D01*
X69880Y-42236D01*
X70165Y-42354D01*
X70473Y-42355D01*
X70758Y-42237D01*
X70976Y-42019D01*
X71094Y-41734D01*
X71095Y-41426D01*
X71095Y-43640D01*
X70937Y-43640D01*
X70920Y-43599D01*
X70800Y-43480D01*
X70644Y-43415D01*
X70475Y-43415D01*
X70319Y-43479D01*
X70199Y-43599D01*
X70134Y-43755D01*
X70134Y-43924D01*
X70199Y-44080D01*
X70318Y-44200D01*
X70474Y-44265D01*
X70644Y-44265D01*
X70800Y-44200D01*
X70919Y-44081D01*
X70936Y-44040D01*
X72682Y-44040D01*
X72699Y-44080D01*
X72818Y-44200D01*
X72974Y-44265D01*
X73144Y-44265D01*
X73300Y-44200D01*
X73419Y-44081D01*
X73484Y-43925D01*
X73484Y-43756D01*
X73484Y-44479D01*
X68823Y-44479D01*
X68801Y-44425D01*
X68674Y-44298D01*
X68509Y-44230D01*
X68330Y-44229D01*
X68165Y-44298D01*
X68165Y-44217D01*
X68275Y-44107D01*
X68329Y-44129D01*
X68508Y-44129D01*
X68674Y-44061D01*
X68800Y-43935D01*
X68869Y-43769D01*
X68869Y-43590D01*
X68801Y-43425D01*
X68674Y-43298D01*
X68509Y-43230D01*
X68330Y-43229D01*
X68165Y-43298D01*
X68038Y-43424D01*
X67969Y-43590D01*
X67969Y-43769D01*
X67992Y-43824D01*
X67823Y-43992D01*
X67780Y-44057D01*
X67765Y-44134D01*
X67765Y-45874D01*
X67780Y-45951D01*
X67823Y-46016D01*
X68129Y-46321D01*
X68129Y-46321D01*
X68136Y-46326D01*
X68038Y-46424D01*
X67969Y-46590D01*
X67969Y-46769D01*
X68037Y-46934D01*
X68164Y-47061D01*
X68329Y-47129D01*
X68406Y-47129D01*
X68282Y-47136D01*
X68131Y-47198D01*
X68104Y-47294D01*
X68419Y-47609D01*
X68425Y-47603D01*
X68495Y-47674D01*
X68490Y-47679D01*
X68805Y-47995D01*
X68900Y-47967D01*
X68974Y-47761D01*
X68967Y-47623D01*
X69611Y-48268D01*
X69702Y-48328D01*
X69702Y-48328D01*
X69720Y-48332D01*
X69809Y-48350D01*
X70213Y-48350D01*
X70069Y-48409D01*
X69949Y-48529D01*
X69884Y-48685D01*
X69884Y-48854D01*
X69949Y-49010D01*
X70068Y-49130D01*
X70224Y-49195D01*
X70394Y-49195D01*
X70550Y-49130D01*
X70553Y-49126D01*
X70553Y-51230D01*
X70313Y-51470D01*
X70170Y-51470D01*
X70005Y-51538D01*
X69878Y-51664D01*
X69809Y-51830D01*
X69809Y-52009D01*
X69878Y-52174D01*
X69973Y-52269D01*
X69886Y-52269D01*
X69810Y-52285D01*
X69788Y-52299D01*
X69745Y-52328D01*
X69668Y-52405D01*
X69624Y-52470D01*
X69609Y-52547D01*
X69609Y-53346D01*
X69624Y-53423D01*
X69668Y-53488D01*
X73018Y-56837D01*
X73018Y-56837D01*
X73061Y-56866D01*
X73083Y-56881D01*
X73083Y-56881D01*
X73159Y-56896D01*
X73159Y-56896D01*
X76138Y-56896D01*
X75994Y-56993D01*
X75894Y-57142D01*
X75859Y-57318D01*
X75859Y-57621D01*
X75894Y-57797D01*
X75994Y-57947D01*
X76143Y-58046D01*
X76319Y-58081D01*
X76495Y-58046D01*
X76644Y-57947D01*
X76744Y-57797D01*
X76779Y-57621D01*
X76779Y-57318D01*
X76744Y-57142D01*
X76644Y-56993D01*
X76500Y-56896D01*
X77138Y-56896D01*
X76994Y-56993D01*
X76894Y-57142D01*
X76859Y-57318D01*
X76859Y-57621D01*
X76894Y-57797D01*
X76994Y-57947D01*
X77143Y-58046D01*
X77319Y-58081D01*
X77495Y-58046D01*
X77644Y-57947D01*
X77744Y-57797D01*
X77774Y-57649D01*
X77783Y-57654D01*
X77859Y-57670D01*
X77869Y-57670D01*
X77894Y-57797D01*
X77994Y-57947D01*
X78143Y-58046D01*
X78319Y-58081D01*
X78495Y-58046D01*
X78644Y-57947D01*
X78744Y-57797D01*
X78774Y-57649D01*
X78783Y-57654D01*
X78859Y-57670D01*
X78869Y-57670D01*
X78894Y-57797D01*
X78994Y-57947D01*
X79143Y-58046D01*
X79319Y-58081D01*
X79495Y-58046D01*
X79644Y-57947D01*
X79744Y-57797D01*
X79774Y-57649D01*
X79783Y-57654D01*
X79859Y-57670D01*
X79869Y-57670D01*
X79894Y-57797D01*
X79994Y-57947D01*
X80143Y-58046D01*
X80319Y-58081D01*
X80495Y-58046D01*
X80590Y-57983D01*
X80590Y-59326D01*
X79678Y-60238D01*
X79652Y-60276D01*
X79574Y-60198D01*
X79409Y-60130D01*
X79265Y-60129D01*
X77537Y-58401D01*
X77446Y-58341D01*
X77339Y-58319D01*
X69835Y-58319D01*
X69742Y-58226D01*
X69849Y-57969D01*
X69849Y-57591D01*
X69705Y-57242D01*
X69438Y-56975D01*
X69089Y-56830D01*
X68969Y-56829D01*
X68969Y-49029D01*
X68969Y-48330D01*
X68931Y-48238D01*
X68861Y-48168D01*
X68769Y-48129D01*
X68716Y-48129D01*
X68734Y-48065D01*
X68419Y-47750D01*
X68348Y-47821D01*
X68348Y-47679D01*
X68033Y-47364D01*
X67938Y-47392D01*
X67864Y-47598D01*
X67875Y-47816D01*
X67938Y-47967D01*
X68033Y-47995D01*
X68348Y-47679D01*
X68348Y-47821D01*
X68104Y-48065D01*
X68122Y-48129D01*
X68069Y-48129D01*
X67977Y-48168D01*
X67907Y-48238D01*
X67869Y-48330D01*
X67869Y-48567D01*
X67932Y-48629D01*
X68369Y-48629D01*
X68369Y-48622D01*
X68469Y-48622D01*
X68469Y-48629D01*
X68907Y-48629D01*
X68969Y-48567D01*
X68969Y-48330D01*
X68969Y-49029D01*
X68969Y-48792D01*
X68907Y-48729D01*
X68469Y-48729D01*
X68469Y-49167D01*
X68532Y-49229D01*
X68670Y-49229D01*
X68769Y-49229D01*
X68861Y-49191D01*
X68931Y-49121D01*
X68969Y-49029D01*
X68969Y-56829D01*
X68711Y-56829D01*
X68369Y-56971D01*
X68369Y-49167D01*
X68369Y-48729D01*
X67932Y-48729D01*
X67869Y-48792D01*
X67869Y-49029D01*
X67907Y-49121D01*
X67977Y-49191D01*
X68069Y-49229D01*
X68169Y-49229D01*
X68307Y-49229D01*
X68369Y-49167D01*
X68369Y-56971D01*
X68362Y-56974D01*
X68094Y-57241D01*
X67949Y-57590D01*
X67949Y-57968D01*
X68093Y-58317D01*
X68360Y-58584D01*
X68709Y-58729D01*
X69087Y-58730D01*
X69346Y-58623D01*
X69521Y-58797D01*
X69521Y-58797D01*
X69582Y-58838D01*
X69612Y-58858D01*
X69612Y-58858D01*
X69719Y-58879D01*
X77223Y-58879D01*
X78519Y-60175D01*
X78409Y-60130D01*
X78230Y-60129D01*
X78065Y-60198D01*
X77938Y-60324D01*
X77895Y-60428D01*
X77846Y-60395D01*
X77769Y-60379D01*
X77769Y-60379D01*
X77769Y-60250D01*
X77746Y-60195D01*
X77704Y-60152D01*
X77649Y-60129D01*
X77589Y-60129D01*
X76989Y-60129D01*
X76934Y-60152D01*
X76892Y-60194D01*
X76869Y-60249D01*
X76869Y-60309D01*
X76869Y-60909D01*
X76892Y-60964D01*
X76934Y-61007D01*
X76989Y-61029D01*
X77049Y-61029D01*
X77649Y-61029D01*
X77704Y-61007D01*
X77746Y-60965D01*
X77750Y-60956D01*
X77965Y-61171D01*
X77965Y-61171D01*
X78009Y-61200D01*
X78030Y-61214D01*
X78030Y-61214D01*
X78107Y-61230D01*
X78107Y-61230D01*
X79535Y-61230D01*
X79611Y-61214D01*
X79676Y-61171D01*
X79961Y-60887D01*
X79961Y-60887D01*
X79990Y-60843D01*
X79999Y-60829D01*
X79999Y-60829D01*
X80248Y-60579D01*
X80243Y-60574D01*
X80314Y-60503D01*
X80319Y-60509D01*
X80634Y-60194D01*
X80607Y-60098D01*
X80442Y-60039D01*
X80931Y-59550D01*
X80931Y-59550D01*
X80960Y-59507D01*
X80974Y-59486D01*
X80974Y-59486D01*
X80989Y-59409D01*
X80990Y-59409D01*
X80990Y-57940D01*
X80994Y-57947D01*
X81143Y-58046D01*
X81319Y-58081D01*
X81495Y-58046D01*
X81644Y-57947D01*
X81744Y-57797D01*
X81779Y-57621D01*
X81779Y-57318D01*
X81744Y-57142D01*
X81644Y-56993D01*
X81599Y-56962D01*
X81599Y-56586D01*
X83140Y-55044D01*
X83143Y-55046D01*
X83319Y-55081D01*
X83495Y-55046D01*
X83644Y-54947D01*
X83744Y-54797D01*
X83779Y-54621D01*
X83779Y-54318D01*
X83744Y-54142D01*
X83644Y-53993D01*
X83599Y-53962D01*
X83599Y-53885D01*
X83618Y-53856D01*
X83618Y-53856D01*
X83639Y-53749D01*
X83639Y-53749D01*
X83639Y-52941D01*
X83719Y-52861D01*
X83784Y-52704D01*
X83784Y-52535D01*
X83720Y-52379D01*
X83600Y-52259D01*
X83444Y-52195D01*
X83275Y-52195D01*
X83119Y-52259D01*
X82999Y-52379D01*
X82934Y-52535D01*
X82934Y-52704D01*
X82999Y-52860D01*
X83079Y-52941D01*
X83079Y-53654D01*
X83060Y-53682D01*
X83039Y-53789D01*
X83039Y-53962D01*
X82994Y-53993D01*
X82894Y-54142D01*
X82872Y-54254D01*
X82817Y-54069D01*
X82680Y-53898D01*
X82487Y-53793D01*
X82456Y-53787D01*
X82369Y-53835D01*
X82369Y-54420D01*
X82377Y-54420D01*
X82377Y-54520D01*
X82369Y-54520D01*
X82369Y-54527D01*
X82269Y-54527D01*
X82269Y-54520D01*
X82261Y-54520D01*
X82261Y-54420D01*
X82269Y-54420D01*
X82269Y-53835D01*
X82183Y-53787D01*
X82151Y-53793D01*
X81959Y-53898D01*
X81821Y-54069D01*
X81767Y-54254D01*
X81744Y-54142D01*
X81644Y-53993D01*
X81519Y-53909D01*
X81519Y-53883D01*
X81874Y-53528D01*
X81915Y-53545D01*
X82084Y-53545D01*
X82240Y-53480D01*
X82360Y-53361D01*
X82424Y-53204D01*
X82425Y-53035D01*
X82360Y-52879D01*
X82241Y-52759D01*
X82084Y-52695D01*
X81915Y-52695D01*
X81874Y-52711D01*
X81752Y-52589D01*
X81924Y-52649D01*
X82132Y-52638D01*
X82272Y-52580D01*
X82297Y-52487D01*
X82000Y-52190D01*
X81994Y-52196D01*
X81923Y-52125D01*
X81929Y-52120D01*
X81923Y-52114D01*
X81994Y-52043D01*
X82000Y-52049D01*
X82005Y-52043D01*
X82076Y-52114D01*
X82070Y-52120D01*
X82367Y-52417D01*
X82460Y-52392D01*
X82529Y-52195D01*
X82518Y-51987D01*
X82477Y-51888D01*
X84725Y-51888D01*
X85331Y-52494D01*
X85314Y-52535D01*
X85314Y-52704D01*
X85379Y-52860D01*
X85498Y-52980D01*
X85654Y-53045D01*
X85823Y-53045D01*
X85865Y-53028D01*
X86340Y-53503D01*
X86405Y-53547D01*
X86405Y-53547D01*
X86418Y-53549D01*
X86482Y-53562D01*
X87927Y-53562D01*
X88239Y-53874D01*
X88143Y-53893D01*
X87994Y-53993D01*
X87894Y-54142D01*
X87859Y-54318D01*
X87859Y-54621D01*
X87894Y-54797D01*
X87994Y-54947D01*
X88143Y-55046D01*
X88319Y-55081D01*
X88495Y-55046D01*
X88644Y-54947D01*
X88744Y-54797D01*
X88774Y-54649D01*
X88783Y-54654D01*
X88859Y-54670D01*
X88859Y-54670D01*
X88859Y-54949D01*
X88882Y-55004D01*
X88924Y-55047D01*
X88979Y-55070D01*
X89039Y-55070D01*
X89659Y-55070D01*
X89714Y-55047D01*
X89756Y-55005D01*
X89779Y-54950D01*
X89779Y-54890D01*
X89779Y-58023D01*
X89779Y-58023D01*
X89779Y-57621D01*
X89779Y-57318D01*
X89744Y-57142D01*
X89644Y-56993D01*
X89495Y-56893D01*
X89319Y-56858D01*
X89143Y-56893D01*
X88994Y-56993D01*
X88894Y-57142D01*
X88859Y-57318D01*
X88859Y-57621D01*
X88894Y-57797D01*
X88994Y-57947D01*
X89143Y-58046D01*
X89319Y-58081D01*
X89495Y-58046D01*
X89644Y-57947D01*
X89744Y-57797D01*
X89779Y-57621D01*
X89779Y-58023D01*
X89663Y-58140D01*
X89544Y-58425D01*
X89544Y-58733D01*
X89662Y-59018D01*
X89880Y-59236D01*
X90164Y-59354D01*
X90473Y-59355D01*
X90758Y-59237D01*
X90976Y-59019D01*
X91094Y-58734D01*
X91094Y-58426D01*
X91094Y-59535D01*
X90150Y-60489D01*
X90150Y-60532D01*
X90140Y-60580D01*
X90140Y-61400D01*
X89769Y-61400D01*
X89769Y-60490D01*
X89701Y-60325D01*
X89574Y-60198D01*
X89409Y-60130D01*
X89230Y-60129D01*
X89065Y-60198D01*
X88938Y-60324D01*
X88869Y-60490D01*
X88869Y-60669D01*
X88937Y-60834D01*
X89064Y-60961D01*
X89229Y-61029D01*
X89408Y-61029D01*
X89574Y-60961D01*
X89700Y-60835D01*
X89769Y-60669D01*
X89769Y-60490D01*
X89769Y-61400D01*
X88779Y-61400D01*
X88779Y-57621D01*
X88779Y-57318D01*
X88744Y-57142D01*
X88644Y-56993D01*
X88495Y-56893D01*
X88319Y-56858D01*
X88143Y-56893D01*
X87994Y-56993D01*
X87894Y-57142D01*
X87859Y-57318D01*
X87859Y-57621D01*
X87894Y-57797D01*
X87994Y-57947D01*
X88143Y-58046D01*
X88319Y-58081D01*
X88495Y-58046D01*
X88644Y-57947D01*
X88744Y-57797D01*
X88779Y-57621D01*
X88779Y-61400D01*
X88769Y-61400D01*
X88769Y-60490D01*
X88701Y-60325D01*
X88574Y-60198D01*
X88409Y-60130D01*
X88230Y-60129D01*
X88065Y-60198D01*
X87938Y-60324D01*
X87869Y-60490D01*
X87869Y-60669D01*
X87937Y-60834D01*
X88064Y-60961D01*
X88229Y-61029D01*
X88408Y-61029D01*
X88574Y-60961D01*
X88700Y-60835D01*
X88769Y-60669D01*
X88769Y-60490D01*
X88769Y-61400D01*
X87779Y-61400D01*
X87779Y-57621D01*
X87779Y-57318D01*
X87779Y-54621D01*
X87779Y-54318D01*
X87744Y-54142D01*
X87644Y-53993D01*
X87495Y-53893D01*
X87319Y-53858D01*
X87143Y-53893D01*
X86994Y-53993D01*
X86894Y-54142D01*
X86859Y-54318D01*
X86859Y-54621D01*
X86894Y-54797D01*
X86994Y-54947D01*
X87143Y-55046D01*
X87319Y-55081D01*
X87495Y-55046D01*
X87644Y-54947D01*
X87744Y-54797D01*
X87779Y-54621D01*
X87779Y-57318D01*
X87744Y-57142D01*
X87644Y-56993D01*
X87495Y-56893D01*
X87319Y-56858D01*
X87143Y-56893D01*
X86994Y-56993D01*
X86894Y-57142D01*
X86859Y-57318D01*
X86859Y-57621D01*
X86894Y-57797D01*
X86994Y-57947D01*
X87143Y-58046D01*
X87319Y-58081D01*
X87495Y-58046D01*
X87644Y-57947D01*
X87744Y-57797D01*
X87779Y-57621D01*
X87779Y-61400D01*
X87769Y-61400D01*
X87769Y-60490D01*
X87701Y-60325D01*
X87574Y-60198D01*
X87409Y-60130D01*
X87230Y-60129D01*
X87065Y-60198D01*
X86938Y-60324D01*
X86869Y-60490D01*
X86869Y-60669D01*
X86937Y-60834D01*
X87064Y-60961D01*
X87229Y-61029D01*
X87408Y-61029D01*
X87574Y-60961D01*
X87700Y-60835D01*
X87769Y-60669D01*
X87769Y-60490D01*
X87769Y-61400D01*
X86779Y-61400D01*
X86779Y-57621D01*
X86779Y-57318D01*
X86779Y-54621D01*
X86779Y-54318D01*
X86744Y-54142D01*
X86644Y-53993D01*
X86495Y-53893D01*
X86319Y-53858D01*
X86143Y-53893D01*
X85994Y-53993D01*
X85894Y-54142D01*
X85859Y-54318D01*
X85859Y-54621D01*
X85894Y-54797D01*
X85994Y-54947D01*
X86143Y-55046D01*
X86319Y-55081D01*
X86495Y-55046D01*
X86644Y-54947D01*
X86744Y-54797D01*
X86779Y-54621D01*
X86779Y-57318D01*
X86744Y-57142D01*
X86644Y-56993D01*
X86495Y-56893D01*
X86319Y-56858D01*
X86143Y-56893D01*
X85994Y-56993D01*
X85894Y-57142D01*
X85859Y-57318D01*
X85859Y-57621D01*
X85894Y-57797D01*
X85994Y-57947D01*
X86143Y-58046D01*
X86319Y-58081D01*
X86495Y-58046D01*
X86644Y-57947D01*
X86744Y-57797D01*
X86779Y-57621D01*
X86779Y-61400D01*
X86769Y-61400D01*
X86769Y-60490D01*
X86701Y-60325D01*
X86574Y-60198D01*
X86409Y-60130D01*
X86230Y-60129D01*
X86065Y-60198D01*
X85938Y-60324D01*
X85869Y-60490D01*
X85869Y-60669D01*
X85937Y-60834D01*
X86064Y-60961D01*
X86229Y-61029D01*
X86408Y-61029D01*
X86574Y-60961D01*
X86700Y-60835D01*
X86769Y-60669D01*
X86769Y-60490D01*
X86769Y-61400D01*
X85779Y-61400D01*
X85779Y-57621D01*
X85779Y-57318D01*
X85779Y-54621D01*
X85779Y-54318D01*
X85744Y-54142D01*
X85644Y-53993D01*
X85495Y-53893D01*
X85319Y-53858D01*
X85143Y-53893D01*
X84994Y-53993D01*
X84894Y-54142D01*
X84889Y-54167D01*
X84889Y-52695D01*
X84878Y-52487D01*
X84820Y-52347D01*
X84727Y-52322D01*
X84656Y-52393D01*
X84656Y-52252D01*
X84632Y-52159D01*
X84435Y-52090D01*
X84227Y-52101D01*
X84087Y-52159D01*
X84062Y-52252D01*
X84359Y-52549D01*
X84656Y-52252D01*
X84656Y-52393D01*
X84430Y-52620D01*
X84727Y-52917D01*
X84820Y-52892D01*
X84889Y-52695D01*
X84889Y-54167D01*
X84859Y-54318D01*
X84859Y-54621D01*
X84894Y-54797D01*
X84994Y-54947D01*
X85143Y-55046D01*
X85319Y-55081D01*
X85495Y-55046D01*
X85644Y-54947D01*
X85744Y-54797D01*
X85779Y-54621D01*
X85779Y-57318D01*
X85744Y-57142D01*
X85644Y-56993D01*
X85495Y-56893D01*
X85319Y-56858D01*
X85143Y-56893D01*
X84994Y-56993D01*
X84894Y-57142D01*
X84859Y-57318D01*
X84859Y-57621D01*
X84894Y-57797D01*
X84994Y-57947D01*
X85143Y-58046D01*
X85319Y-58081D01*
X85495Y-58046D01*
X85644Y-57947D01*
X85744Y-57797D01*
X85779Y-57621D01*
X85779Y-61400D01*
X85769Y-61400D01*
X85769Y-60490D01*
X85701Y-60325D01*
X85574Y-60198D01*
X85409Y-60130D01*
X85230Y-60129D01*
X85065Y-60198D01*
X84938Y-60324D01*
X84869Y-60490D01*
X84869Y-60669D01*
X84937Y-60834D01*
X85064Y-60961D01*
X85229Y-61029D01*
X85408Y-61029D01*
X85574Y-60961D01*
X85700Y-60835D01*
X85769Y-60669D01*
X85769Y-60490D01*
X85769Y-61400D01*
X84779Y-61400D01*
X84779Y-57621D01*
X84779Y-57318D01*
X84779Y-54621D01*
X84779Y-54318D01*
X84744Y-54142D01*
X84656Y-54010D01*
X84656Y-52987D01*
X84359Y-52690D01*
X84289Y-52761D01*
X84289Y-52620D01*
X83992Y-52322D01*
X83899Y-52347D01*
X83829Y-52544D01*
X83841Y-52752D01*
X83899Y-52892D01*
X83992Y-52917D01*
X84289Y-52620D01*
X84289Y-52761D01*
X84062Y-52987D01*
X84087Y-53080D01*
X84284Y-53149D01*
X84492Y-53138D01*
X84632Y-53080D01*
X84656Y-52987D01*
X84656Y-54010D01*
X84644Y-53993D01*
X84495Y-53893D01*
X84319Y-53858D01*
X84143Y-53893D01*
X83994Y-53993D01*
X83894Y-54142D01*
X83859Y-54318D01*
X83859Y-54621D01*
X83894Y-54797D01*
X83994Y-54947D01*
X84143Y-55046D01*
X84319Y-55081D01*
X84495Y-55046D01*
X84644Y-54947D01*
X84744Y-54797D01*
X84779Y-54621D01*
X84779Y-57318D01*
X84744Y-57142D01*
X84644Y-56993D01*
X84495Y-56893D01*
X84319Y-56858D01*
X84143Y-56893D01*
X83994Y-56993D01*
X83894Y-57142D01*
X83872Y-57254D01*
X83817Y-57069D01*
X83680Y-56898D01*
X83487Y-56793D01*
X83456Y-56787D01*
X83369Y-56835D01*
X83369Y-57420D01*
X83377Y-57420D01*
X83377Y-57520D01*
X83369Y-57520D01*
X83369Y-58105D01*
X83456Y-58153D01*
X83487Y-58146D01*
X83680Y-58041D01*
X83817Y-57870D01*
X83872Y-57685D01*
X83894Y-57797D01*
X83994Y-57947D01*
X84143Y-58046D01*
X84319Y-58081D01*
X84495Y-58046D01*
X84644Y-57947D01*
X84744Y-57797D01*
X84779Y-57621D01*
X84779Y-61400D01*
X84769Y-61400D01*
X84769Y-60850D01*
X84769Y-60250D01*
X84746Y-60195D01*
X84704Y-60152D01*
X84649Y-60129D01*
X84589Y-60129D01*
X83989Y-60129D01*
X83934Y-60152D01*
X83892Y-60194D01*
X83869Y-60249D01*
X83869Y-60309D01*
X83869Y-60909D01*
X83892Y-60964D01*
X83934Y-61007D01*
X83989Y-61029D01*
X84049Y-61029D01*
X84649Y-61029D01*
X84704Y-61007D01*
X84746Y-60965D01*
X84769Y-60909D01*
X84769Y-60850D01*
X84769Y-61400D01*
X83269Y-61400D01*
X83269Y-58105D01*
X83269Y-57520D01*
X83261Y-57520D01*
X83261Y-57420D01*
X83269Y-57420D01*
X83269Y-56835D01*
X83183Y-56787D01*
X83151Y-56793D01*
X82959Y-56898D01*
X82821Y-57069D01*
X82767Y-57254D01*
X82744Y-57142D01*
X82644Y-56993D01*
X82495Y-56893D01*
X82319Y-56858D01*
X82143Y-56893D01*
X81994Y-56993D01*
X81894Y-57142D01*
X81859Y-57318D01*
X81859Y-57621D01*
X81894Y-57797D01*
X81994Y-57947D01*
X82143Y-58046D01*
X82319Y-58081D01*
X82495Y-58046D01*
X82644Y-57947D01*
X82744Y-57797D01*
X82767Y-57685D01*
X82821Y-57870D01*
X82959Y-58041D01*
X83151Y-58146D01*
X83183Y-58153D01*
X83269Y-58105D01*
X83269Y-61400D01*
X82769Y-61400D01*
X82769Y-60490D01*
X82701Y-60325D01*
X82574Y-60198D01*
X82409Y-60130D01*
X82230Y-60129D01*
X82065Y-60198D01*
X81938Y-60324D01*
X81869Y-60490D01*
X81869Y-60566D01*
X81863Y-60443D01*
X81800Y-60292D01*
X81705Y-60264D01*
X81634Y-60335D01*
X81634Y-60194D01*
X81607Y-60098D01*
X81401Y-60025D01*
X81182Y-60036D01*
X81031Y-60098D01*
X81004Y-60194D01*
X81319Y-60509D01*
X81634Y-60194D01*
X81634Y-60335D01*
X81390Y-60579D01*
X81705Y-60895D01*
X81800Y-60867D01*
X81870Y-60671D01*
X81937Y-60834D01*
X82064Y-60961D01*
X82229Y-61029D01*
X82408Y-61029D01*
X82574Y-60961D01*
X82700Y-60835D01*
X82769Y-60669D01*
X82769Y-60490D01*
X82769Y-61400D01*
X81634Y-61400D01*
X81634Y-60965D01*
X81319Y-60650D01*
X81248Y-60721D01*
X81248Y-60579D01*
X80933Y-60264D01*
X80838Y-60292D01*
X80821Y-60340D01*
X80800Y-60292D01*
X80705Y-60264D01*
X80390Y-60579D01*
X80705Y-60895D01*
X80800Y-60867D01*
X80818Y-60819D01*
X80838Y-60867D01*
X80933Y-60895D01*
X81248Y-60579D01*
X81248Y-60721D01*
X81004Y-60965D01*
X81031Y-61061D01*
X81237Y-61134D01*
X81456Y-61123D01*
X81607Y-61061D01*
X81634Y-60965D01*
X81634Y-61400D01*
X80634Y-61400D01*
X80634Y-60965D01*
X80319Y-60650D01*
X80004Y-60965D01*
X80031Y-61061D01*
X80237Y-61134D01*
X80456Y-61123D01*
X80607Y-61061D01*
X80634Y-60965D01*
X80634Y-61400D01*
X70594Y-61400D01*
X70594Y-60426D01*
X70477Y-60141D01*
X70259Y-59923D01*
X69974Y-59805D01*
X69666Y-59804D01*
X69381Y-59922D01*
X69163Y-60140D01*
X69044Y-60425D01*
X69044Y-60733D01*
X69162Y-61018D01*
X69380Y-61236D01*
X69664Y-61354D01*
X69973Y-61355D01*
X70258Y-61237D01*
X70476Y-61019D01*
X70594Y-60734D01*
X70594Y-60426D01*
X70594Y-61400D01*
X68771Y-61400D01*
X68771Y-59830D01*
X68768Y-59413D01*
X68614Y-59041D01*
X68466Y-58953D01*
X68396Y-59024D01*
X68396Y-58882D01*
X68307Y-58735D01*
X67920Y-58578D01*
X67591Y-58580D01*
X67591Y-57980D01*
X67588Y-57563D01*
X67434Y-57191D01*
X67286Y-57103D01*
X67216Y-57174D01*
X67216Y-57032D01*
X67127Y-56885D01*
X66740Y-56728D01*
X66323Y-56731D01*
X65951Y-56885D01*
X65863Y-57032D01*
X66539Y-57709D01*
X67216Y-57032D01*
X67216Y-57174D01*
X66610Y-57779D01*
X67286Y-58456D01*
X67434Y-58368D01*
X67591Y-57980D01*
X67591Y-58580D01*
X67503Y-58581D01*
X67216Y-58700D01*
X67216Y-58527D01*
X66539Y-57850D01*
X66468Y-57921D01*
X66468Y-57779D01*
X65792Y-57103D01*
X65645Y-57191D01*
X65488Y-57578D01*
X65491Y-57996D01*
X65645Y-58368D01*
X65792Y-58456D01*
X66468Y-57779D01*
X66468Y-57921D01*
X65863Y-58527D01*
X65951Y-58674D01*
X66338Y-58831D01*
X66756Y-58828D01*
X67127Y-58674D01*
X67216Y-58527D01*
X67216Y-58700D01*
X67131Y-58735D01*
X67043Y-58882D01*
X67719Y-59559D01*
X68396Y-58882D01*
X68396Y-59024D01*
X67790Y-59629D01*
X68466Y-60306D01*
X68614Y-60218D01*
X68771Y-59830D01*
X68771Y-61400D01*
X68396Y-61400D01*
X68396Y-60377D01*
X67719Y-59700D01*
X67648Y-59771D01*
X67648Y-59629D01*
X66972Y-58953D01*
X66825Y-59041D01*
X66668Y-59428D01*
X66671Y-59846D01*
X66825Y-60218D01*
X66972Y-60306D01*
X67648Y-59629D01*
X67648Y-59771D01*
X67043Y-60377D01*
X67131Y-60524D01*
X67518Y-60681D01*
X67936Y-60678D01*
X68307Y-60524D01*
X68396Y-60377D01*
X68396Y-61400D01*
X64499Y-61400D01*
X64499Y-40759D01*
X89645Y-40759D01*
X90140Y-41254D01*
X90140Y-45680D01*
X90154Y-45748D01*
X90160Y-45757D01*
X90160Y-45861D01*
X91140Y-46821D01*
X91140Y-59489D01*
X91140Y-59489D01*
G37*
G54D20*
X91140Y-59489D02*
X91094Y-59535D01*
X91094Y-58426D01*
X91094Y-47426D01*
X90977Y-47141D01*
X90759Y-46923D01*
X90474Y-46805D01*
X90166Y-46804D01*
X89881Y-46922D01*
X89663Y-47140D01*
X89544Y-47425D01*
X89544Y-47733D01*
X89662Y-48018D01*
X89880Y-48236D01*
X90164Y-48354D01*
X90473Y-48355D01*
X90758Y-48237D01*
X90976Y-48019D01*
X91094Y-47734D01*
X91094Y-47426D01*
X91094Y-58426D01*
X90977Y-58141D01*
X90759Y-57923D01*
X90474Y-57805D01*
X90166Y-57804D01*
X89881Y-57922D01*
X89779Y-58023D01*
X89779Y-54890D01*
X89779Y-53990D01*
X89756Y-53935D01*
X89714Y-53892D01*
X89659Y-53870D01*
X89599Y-53870D01*
X88979Y-53870D01*
X88924Y-53892D01*
X88882Y-53934D01*
X88877Y-53946D01*
X88152Y-53220D01*
X88087Y-53177D01*
X88010Y-53162D01*
X86564Y-53162D01*
X86147Y-52745D01*
X86164Y-52704D01*
X86164Y-52535D01*
X86100Y-52379D01*
X85980Y-52259D01*
X85824Y-52195D01*
X85655Y-52195D01*
X85614Y-52211D01*
X84949Y-51546D01*
X84884Y-51503D01*
X84807Y-51488D01*
X79986Y-51488D01*
X79909Y-51503D01*
X79888Y-51517D01*
X79844Y-51546D01*
X78253Y-53137D01*
X78198Y-53137D01*
X78134Y-53150D01*
X78122Y-53153D01*
X78057Y-53196D01*
X77888Y-53365D01*
X76116Y-53365D01*
X76119Y-53361D01*
X76136Y-53320D01*
X77170Y-53320D01*
X77246Y-53304D01*
X77311Y-53261D01*
X77750Y-52822D01*
X77794Y-52840D01*
X77965Y-52840D01*
X78123Y-52774D01*
X78244Y-52654D01*
X78309Y-52496D01*
X78309Y-52325D01*
X78244Y-52166D01*
X78123Y-52045D01*
X77965Y-51980D01*
X77794Y-51980D01*
X77636Y-52045D01*
X77515Y-52166D01*
X77449Y-52324D01*
X77449Y-52495D01*
X77467Y-52539D01*
X77087Y-52920D01*
X76289Y-52920D01*
X76289Y-52195D01*
X76278Y-51987D01*
X76220Y-51847D01*
X76127Y-51822D01*
X76056Y-51893D01*
X76056Y-51752D01*
X76032Y-51659D01*
X75835Y-51590D01*
X75627Y-51601D01*
X75487Y-51659D01*
X75462Y-51752D01*
X75759Y-52049D01*
X76056Y-51752D01*
X76056Y-51893D01*
X75830Y-52120D01*
X76127Y-52417D01*
X76220Y-52392D01*
X76289Y-52195D01*
X76289Y-52920D01*
X76137Y-52920D01*
X76120Y-52879D01*
X76056Y-52816D01*
X76056Y-52487D01*
X75759Y-52190D01*
X75689Y-52261D01*
X75689Y-52120D01*
X75392Y-51822D01*
X75299Y-51847D01*
X75229Y-52044D01*
X75241Y-52252D01*
X75299Y-52392D01*
X75392Y-52417D01*
X75689Y-52120D01*
X75689Y-52261D01*
X75462Y-52487D01*
X75487Y-52580D01*
X75684Y-52649D01*
X75892Y-52638D01*
X76032Y-52580D01*
X76056Y-52487D01*
X76056Y-52816D01*
X76000Y-52759D01*
X75844Y-52695D01*
X75675Y-52695D01*
X75519Y-52759D01*
X75399Y-52879D01*
X75334Y-53035D01*
X75334Y-53204D01*
X75399Y-53360D01*
X75403Y-53365D01*
X73734Y-53365D01*
X73734Y-48685D01*
X73670Y-48529D01*
X73550Y-48409D01*
X73394Y-48345D01*
X73225Y-48345D01*
X73069Y-48409D01*
X72949Y-48529D01*
X72884Y-48685D01*
X72884Y-48854D01*
X72949Y-49010D01*
X73068Y-49130D01*
X73224Y-49195D01*
X73394Y-49195D01*
X73550Y-49130D01*
X73669Y-49011D01*
X73734Y-48854D01*
X73734Y-48685D01*
X73734Y-53365D01*
X72987Y-53365D01*
X72814Y-53192D01*
X72814Y-52001D01*
X72803Y-51783D01*
X72741Y-51632D01*
X72645Y-51604D01*
X72575Y-51675D01*
X72575Y-51534D01*
X72547Y-51438D01*
X72341Y-51365D01*
X72123Y-51376D01*
X71971Y-51438D01*
X71944Y-51534D01*
X72259Y-51849D01*
X72575Y-51534D01*
X72575Y-51675D01*
X72330Y-51920D01*
X72645Y-52235D01*
X72741Y-52207D01*
X72814Y-52001D01*
X72814Y-53192D01*
X72687Y-53064D01*
X72709Y-53009D01*
X72709Y-52830D01*
X72641Y-52665D01*
X72515Y-52538D01*
X72349Y-52470D01*
X72273Y-52470D01*
X72396Y-52463D01*
X72547Y-52401D01*
X72575Y-52305D01*
X72259Y-51990D01*
X71944Y-52305D01*
X71971Y-52401D01*
X72167Y-52471D01*
X72005Y-52538D01*
X71878Y-52664D01*
X71809Y-52830D01*
X71809Y-53009D01*
X71878Y-53174D01*
X72004Y-53301D01*
X72169Y-53370D01*
X72348Y-53370D01*
X72404Y-53347D01*
X72763Y-53706D01*
X72828Y-53749D01*
X72828Y-53749D01*
X72840Y-53752D01*
X72904Y-53765D01*
X77971Y-53765D01*
X78048Y-53749D01*
X78113Y-53706D01*
X78267Y-53551D01*
X78619Y-53903D01*
X78619Y-53976D01*
X78495Y-53893D01*
X78319Y-53858D01*
X78143Y-53893D01*
X77994Y-53993D01*
X77894Y-54142D01*
X77859Y-54318D01*
X77859Y-54621D01*
X77894Y-54797D01*
X77994Y-54947D01*
X78143Y-55046D01*
X78319Y-55081D01*
X78495Y-55046D01*
X78644Y-54947D01*
X78671Y-54906D01*
X78678Y-54916D01*
X80590Y-56828D01*
X80590Y-56956D01*
X80495Y-56893D01*
X80319Y-56858D01*
X80143Y-56893D01*
X79994Y-56993D01*
X79966Y-57035D01*
X77996Y-55065D01*
X77931Y-55022D01*
X77855Y-55006D01*
X77555Y-55006D01*
X77644Y-54947D01*
X77744Y-54797D01*
X77779Y-54621D01*
X77779Y-54318D01*
X77744Y-54142D01*
X77644Y-53993D01*
X77495Y-53893D01*
X77319Y-53858D01*
X77143Y-53893D01*
X76994Y-53993D01*
X76894Y-54142D01*
X76859Y-54318D01*
X76859Y-54621D01*
X76894Y-54797D01*
X76994Y-54947D01*
X77083Y-55006D01*
X76555Y-55006D01*
X76644Y-54947D01*
X76744Y-54797D01*
X76779Y-54621D01*
X76779Y-54318D01*
X76744Y-54142D01*
X76644Y-53993D01*
X76495Y-53893D01*
X76319Y-53858D01*
X76143Y-53893D01*
X75994Y-53993D01*
X75894Y-54142D01*
X75859Y-54318D01*
X75859Y-54621D01*
X75894Y-54797D01*
X75994Y-54947D01*
X76083Y-55006D01*
X74558Y-55006D01*
X73826Y-54274D01*
X73761Y-54231D01*
X73684Y-54216D01*
X72838Y-54216D01*
X71687Y-53064D01*
X71709Y-53009D01*
X71709Y-52830D01*
X71641Y-52665D01*
X71515Y-52538D01*
X71349Y-52470D01*
X71170Y-52470D01*
X71005Y-52538D01*
X70878Y-52664D01*
X70835Y-52768D01*
X70786Y-52735D01*
X70709Y-52720D01*
X70709Y-52720D01*
X70709Y-52669D01*
X70710Y-52669D01*
X70786Y-52654D01*
X70851Y-52611D01*
X71115Y-52347D01*
X71169Y-52370D01*
X71348Y-52370D01*
X71514Y-52301D01*
X71641Y-52175D01*
X71709Y-52009D01*
X71709Y-51933D01*
X71716Y-52056D01*
X71778Y-52207D01*
X71873Y-52235D01*
X72189Y-51920D01*
X71873Y-51604D01*
X71778Y-51632D01*
X71708Y-51828D01*
X71641Y-51665D01*
X71515Y-51538D01*
X71349Y-51470D01*
X71170Y-51470D01*
X71047Y-51521D01*
X71072Y-51483D01*
X71092Y-51453D01*
X71092Y-51453D01*
X71113Y-51346D01*
X71113Y-51346D01*
X71113Y-48350D01*
X72609Y-48350D01*
X72716Y-48328D01*
X72716Y-48328D01*
X72807Y-48268D01*
X73280Y-47795D01*
X73394Y-47795D01*
X73550Y-47730D01*
X73669Y-47611D01*
X73734Y-47454D01*
X73734Y-47285D01*
X73670Y-47129D01*
X73550Y-47009D01*
X73394Y-46945D01*
X73225Y-46945D01*
X73069Y-47009D01*
X72949Y-47129D01*
X72884Y-47285D01*
X72884Y-47399D01*
X72493Y-47790D01*
X70833Y-47790D01*
X70406Y-47790D01*
X70550Y-47730D01*
X70669Y-47611D01*
X70734Y-47454D01*
X70734Y-47285D01*
X70670Y-47129D01*
X70550Y-47009D01*
X70394Y-46945D01*
X70225Y-46945D01*
X70069Y-47009D01*
X69949Y-47129D01*
X69884Y-47285D01*
X69884Y-47454D01*
X69949Y-47610D01*
X70068Y-47730D01*
X70213Y-47790D01*
X69925Y-47790D01*
X68869Y-46733D01*
X68869Y-46590D01*
X68801Y-46425D01*
X68756Y-46379D01*
X80216Y-46379D01*
X86331Y-52494D01*
X86314Y-52535D01*
X86314Y-52704D01*
X86379Y-52860D01*
X86498Y-52980D01*
X86654Y-53045D01*
X86823Y-53045D01*
X86980Y-52980D01*
X87099Y-52861D01*
X87164Y-52704D01*
X87164Y-52535D01*
X87100Y-52379D01*
X86980Y-52259D01*
X86824Y-52195D01*
X86655Y-52195D01*
X86614Y-52211D01*
X80441Y-46038D01*
X80376Y-45995D01*
X80299Y-45979D01*
X73348Y-45979D01*
X73356Y-45948D01*
X73059Y-45650D01*
X72762Y-45948D01*
X72771Y-45979D01*
X70848Y-45979D01*
X70856Y-45948D01*
X70559Y-45650D01*
X70262Y-45948D01*
X70271Y-45979D01*
X68756Y-45979D01*
X68800Y-45935D01*
X68869Y-45769D01*
X68869Y-45590D01*
X68846Y-45535D01*
X69027Y-45355D01*
X70082Y-45355D01*
X70029Y-45504D01*
X70041Y-45712D01*
X70099Y-45853D01*
X70192Y-45877D01*
X70489Y-45580D01*
X70483Y-45574D01*
X70554Y-45503D01*
X70559Y-45509D01*
X70565Y-45503D01*
X70636Y-45574D01*
X70630Y-45580D01*
X70927Y-45877D01*
X71020Y-45853D01*
X71089Y-45656D01*
X71078Y-45447D01*
X71040Y-45355D01*
X72582Y-45355D01*
X72529Y-45504D01*
X72541Y-45712D01*
X72599Y-45853D01*
X72692Y-45877D01*
X72989Y-45580D01*
X72983Y-45574D01*
X73054Y-45503D01*
X73059Y-45509D01*
X73065Y-45503D01*
X73136Y-45574D01*
X73130Y-45580D01*
X73427Y-45877D01*
X73520Y-45853D01*
X73589Y-45656D01*
X73578Y-45447D01*
X73540Y-45355D01*
X85406Y-45355D01*
X85483Y-45339D01*
X85548Y-45296D01*
X88888Y-41956D01*
X88892Y-41964D01*
X88934Y-42007D01*
X88989Y-42029D01*
X89049Y-42029D01*
X89649Y-42029D01*
X89704Y-42007D01*
X89746Y-41965D01*
X89769Y-41909D01*
X89769Y-41850D01*
X89769Y-41250D01*
X89746Y-41195D01*
X89704Y-41152D01*
X89649Y-41129D01*
X89589Y-41129D01*
X88989Y-41129D01*
X88934Y-41152D01*
X88892Y-41194D01*
X88869Y-41249D01*
X88869Y-41309D01*
X88869Y-41379D01*
X88869Y-41379D01*
X88793Y-41395D01*
X88743Y-41428D01*
X88701Y-41325D01*
X88574Y-41198D01*
X88409Y-41130D01*
X88230Y-41129D01*
X88065Y-41198D01*
X87938Y-41324D01*
X87869Y-41490D01*
X87869Y-41669D01*
X87892Y-41724D01*
X87769Y-41847D01*
X87769Y-41490D01*
X87701Y-41325D01*
X87574Y-41198D01*
X87409Y-41130D01*
X87230Y-41129D01*
X87065Y-41198D01*
X86938Y-41324D01*
X86869Y-41490D01*
X86869Y-41669D01*
X86937Y-41834D01*
X87064Y-41961D01*
X87229Y-42029D01*
X87408Y-42029D01*
X87574Y-41961D01*
X87700Y-41835D01*
X87769Y-41669D01*
X87769Y-41490D01*
X87769Y-41847D01*
X86769Y-42847D01*
X86769Y-41490D01*
X86701Y-41325D01*
X86574Y-41198D01*
X86409Y-41130D01*
X86230Y-41129D01*
X86065Y-41198D01*
X85938Y-41324D01*
X85869Y-41490D01*
X85869Y-41669D01*
X85937Y-41834D01*
X86064Y-41961D01*
X86229Y-42029D01*
X86408Y-42029D01*
X86574Y-41961D01*
X86700Y-41835D01*
X86769Y-41669D01*
X86769Y-41490D01*
X86769Y-42847D01*
X85769Y-43847D01*
X85769Y-41490D01*
X85701Y-41325D01*
X85574Y-41198D01*
X85409Y-41130D01*
X85230Y-41129D01*
X85065Y-41198D01*
X84938Y-41324D01*
X84869Y-41490D01*
X84869Y-41669D01*
X84937Y-41834D01*
X85064Y-41961D01*
X85229Y-42029D01*
X85408Y-42029D01*
X85574Y-41961D01*
X85700Y-41835D01*
X85769Y-41669D01*
X85769Y-41490D01*
X85769Y-43847D01*
X85136Y-44479D01*
X84769Y-44479D01*
X84769Y-41490D01*
X84701Y-41325D01*
X84574Y-41198D01*
X84409Y-41130D01*
X84230Y-41129D01*
X84065Y-41198D01*
X83938Y-41324D01*
X83869Y-41490D01*
X83869Y-41669D01*
X83937Y-41834D01*
X84064Y-41961D01*
X84229Y-42029D01*
X84408Y-42029D01*
X84574Y-41961D01*
X84700Y-41835D01*
X84769Y-41669D01*
X84769Y-41490D01*
X84769Y-44479D01*
X83769Y-44479D01*
X83769Y-41490D01*
X83701Y-41325D01*
X83574Y-41198D01*
X83409Y-41130D01*
X83230Y-41129D01*
X83065Y-41198D01*
X82938Y-41324D01*
X82869Y-41490D01*
X82869Y-41669D01*
X82937Y-41834D01*
X83064Y-41961D01*
X83229Y-42029D01*
X83408Y-42029D01*
X83574Y-41961D01*
X83700Y-41835D01*
X83769Y-41669D01*
X83769Y-41490D01*
X83769Y-44479D01*
X82769Y-44479D01*
X82769Y-41490D01*
X82701Y-41325D01*
X82574Y-41198D01*
X82409Y-41130D01*
X82230Y-41129D01*
X82065Y-41198D01*
X81938Y-41324D01*
X81869Y-41490D01*
X81869Y-41669D01*
X81937Y-41834D01*
X82064Y-41961D01*
X82229Y-42029D01*
X82408Y-42029D01*
X82574Y-41961D01*
X82700Y-41835D01*
X82769Y-41669D01*
X82769Y-41490D01*
X82769Y-44479D01*
X81169Y-44479D01*
X81169Y-41850D01*
X81169Y-41250D01*
X81146Y-41195D01*
X81104Y-41152D01*
X81049Y-41129D01*
X80989Y-41129D01*
X80389Y-41129D01*
X80334Y-41152D01*
X80292Y-41194D01*
X80269Y-41249D01*
X80269Y-41309D01*
X80269Y-41909D01*
X80292Y-41964D01*
X80334Y-42007D01*
X80389Y-42029D01*
X80449Y-42029D01*
X81049Y-42029D01*
X81104Y-42007D01*
X81146Y-41965D01*
X81169Y-41909D01*
X81169Y-41850D01*
X81169Y-44479D01*
X80169Y-44479D01*
X80169Y-41490D01*
X80101Y-41325D01*
X79974Y-41198D01*
X79809Y-41130D01*
X79630Y-41129D01*
X79465Y-41198D01*
X79338Y-41324D01*
X79269Y-41490D01*
X79269Y-41669D01*
X79337Y-41834D01*
X79464Y-41961D01*
X79629Y-42029D01*
X79808Y-42029D01*
X79974Y-41961D01*
X80100Y-41835D01*
X80169Y-41669D01*
X80169Y-41490D01*
X80169Y-44479D01*
X79169Y-44479D01*
X79169Y-41490D01*
X79101Y-41325D01*
X78974Y-41198D01*
X78809Y-41130D01*
X78630Y-41129D01*
X78465Y-41198D01*
X78338Y-41324D01*
X78269Y-41490D01*
X78269Y-41669D01*
X78337Y-41834D01*
X78464Y-41961D01*
X78629Y-42029D01*
X78808Y-42029D01*
X78974Y-41961D01*
X79100Y-41835D01*
X79169Y-41669D01*
X79169Y-41490D01*
X79169Y-44479D01*
X78169Y-44479D01*
X78169Y-41490D01*
X78101Y-41325D01*
X77974Y-41198D01*
X77809Y-41130D01*
X77630Y-41129D01*
X77465Y-41198D01*
X77338Y-41324D01*
X77269Y-41490D01*
X77269Y-41669D01*
X77337Y-41834D01*
X77464Y-41961D01*
X77629Y-42029D01*
X77808Y-42029D01*
X77974Y-41961D01*
X78100Y-41835D01*
X78169Y-41669D01*
X78169Y-41490D01*
X78169Y-44479D01*
X77169Y-44479D01*
X77169Y-41490D01*
X77101Y-41325D01*
X76974Y-41198D01*
X76809Y-41130D01*
X76630Y-41129D01*
X76465Y-41198D01*
X76338Y-41324D01*
X76269Y-41490D01*
X76269Y-41669D01*
X76337Y-41834D01*
X76464Y-41961D01*
X76629Y-42029D01*
X76808Y-42029D01*
X76974Y-41961D01*
X77100Y-41835D01*
X77169Y-41669D01*
X77169Y-41490D01*
X77169Y-44479D01*
X76169Y-44479D01*
X76169Y-41490D01*
X76101Y-41325D01*
X75974Y-41198D01*
X75809Y-41130D01*
X75630Y-41129D01*
X75465Y-41198D01*
X75338Y-41324D01*
X75269Y-41490D01*
X75269Y-41566D01*
X75263Y-41443D01*
X75200Y-41292D01*
X75105Y-41264D01*
X75034Y-41335D01*
X75034Y-41194D01*
X75007Y-41098D01*
X74801Y-41025D01*
X74582Y-41036D01*
X74431Y-41098D01*
X74404Y-41194D01*
X74719Y-41509D01*
X75034Y-41194D01*
X75034Y-41335D01*
X74790Y-41579D01*
X75105Y-41895D01*
X75200Y-41867D01*
X75270Y-41671D01*
X75337Y-41834D01*
X75464Y-41961D01*
X75629Y-42029D01*
X75808Y-42029D01*
X75974Y-41961D01*
X76100Y-41835D01*
X76169Y-41669D01*
X76169Y-41490D01*
X76169Y-44479D01*
X75034Y-44479D01*
X75034Y-41965D01*
X74719Y-41650D01*
X74648Y-41721D01*
X74648Y-41579D01*
X74333Y-41264D01*
X74238Y-41292D01*
X74168Y-41487D01*
X74101Y-41325D01*
X73974Y-41198D01*
X73809Y-41130D01*
X73630Y-41129D01*
X73465Y-41198D01*
X73338Y-41324D01*
X73269Y-41490D01*
X73269Y-41669D01*
X73337Y-41834D01*
X73464Y-41961D01*
X73629Y-42029D01*
X73808Y-42029D01*
X73974Y-41961D01*
X74100Y-41835D01*
X74169Y-41669D01*
X74169Y-41593D01*
X74175Y-41716D01*
X74238Y-41867D01*
X74333Y-41895D01*
X74648Y-41579D01*
X74648Y-41721D01*
X74404Y-41965D01*
X74431Y-42061D01*
X74637Y-42134D01*
X74856Y-42123D01*
X75007Y-42061D01*
X75034Y-41965D01*
X75034Y-44479D01*
X73484Y-44479D01*
X73484Y-43756D01*
X73420Y-43599D01*
X73300Y-43480D01*
X73144Y-43415D01*
X72975Y-43415D01*
X72819Y-43479D01*
X72699Y-43599D01*
X72682Y-43640D01*
X71095Y-43640D01*
X71095Y-41426D01*
X70977Y-41141D01*
X70759Y-40923D01*
X70474Y-40805D01*
X70166Y-40804D01*
X69881Y-40922D01*
X69663Y-41140D01*
X69545Y-41425D01*
X69544Y-41733D01*
X69662Y-42018D01*
X69880Y-42236D01*
X70165Y-42354D01*
X70473Y-42355D01*
X70758Y-42237D01*
X70976Y-42019D01*
X71094Y-41734D01*
X71095Y-41426D01*
X71095Y-43640D01*
X70937Y-43640D01*
X70920Y-43599D01*
X70800Y-43480D01*
X70644Y-43415D01*
X70475Y-43415D01*
X70319Y-43479D01*
X70199Y-43599D01*
X70134Y-43755D01*
X70134Y-43924D01*
X70199Y-44080D01*
X70318Y-44200D01*
X70474Y-44265D01*
X70644Y-44265D01*
X70800Y-44200D01*
X70919Y-44081D01*
X70936Y-44040D01*
X72682Y-44040D01*
X72699Y-44080D01*
X72818Y-44200D01*
X72974Y-44265D01*
X73144Y-44265D01*
X73300Y-44200D01*
X73419Y-44081D01*
X73484Y-43925D01*
X73484Y-43756D01*
X73484Y-44479D01*
X68823Y-44479D01*
X68801Y-44425D01*
X68674Y-44298D01*
X68509Y-44230D01*
X68330Y-44229D01*
X68165Y-44298D01*
X68165Y-44217D01*
X68275Y-44107D01*
X68329Y-44129D01*
X68508Y-44129D01*
X68674Y-44061D01*
X68800Y-43935D01*
X68869Y-43769D01*
X68869Y-43590D01*
X68801Y-43425D01*
X68674Y-43298D01*
X68509Y-43230D01*
X68330Y-43229D01*
X68165Y-43298D01*
X68038Y-43424D01*
X67969Y-43590D01*
X67969Y-43769D01*
X67992Y-43824D01*
X67823Y-43992D01*
X67780Y-44057D01*
X67765Y-44134D01*
X67765Y-45874D01*
X67780Y-45951D01*
X67823Y-46016D01*
X68129Y-46321D01*
X68129Y-46321D01*
X68136Y-46326D01*
X68038Y-46424D01*
X67969Y-46590D01*
X67969Y-46769D01*
X68037Y-46934D01*
X68164Y-47061D01*
X68329Y-47129D01*
X68406Y-47129D01*
X68282Y-47136D01*
X68131Y-47198D01*
X68104Y-47294D01*
X68419Y-47609D01*
X68425Y-47603D01*
X68495Y-47674D01*
X68490Y-47679D01*
X68805Y-47995D01*
X68900Y-47967D01*
X68974Y-47761D01*
X68967Y-47623D01*
X69611Y-48268D01*
X69702Y-48328D01*
X69702Y-48328D01*
X69720Y-48332D01*
X69809Y-48350D01*
X70213Y-48350D01*
X70069Y-48409D01*
X69949Y-48529D01*
X69884Y-48685D01*
X69884Y-48854D01*
X69949Y-49010D01*
X70068Y-49130D01*
X70224Y-49195D01*
X70394Y-49195D01*
X70550Y-49130D01*
X70553Y-49126D01*
X70553Y-51230D01*
X70313Y-51470D01*
X70170Y-51470D01*
X70005Y-51538D01*
X69878Y-51664D01*
X69809Y-51830D01*
X69809Y-52009D01*
X69878Y-52174D01*
X69973Y-52269D01*
X69886Y-52269D01*
X69810Y-52285D01*
X69788Y-52299D01*
X69745Y-52328D01*
X69668Y-52405D01*
X69624Y-52470D01*
X69609Y-52547D01*
X69609Y-53346D01*
X69624Y-53423D01*
X69668Y-53488D01*
X73018Y-56837D01*
X73018Y-56837D01*
X73061Y-56866D01*
X73083Y-56881D01*
X73083Y-56881D01*
X73159Y-56896D01*
X73159Y-56896D01*
X76138Y-56896D01*
X75994Y-56993D01*
X75894Y-57142D01*
X75859Y-57318D01*
X75859Y-57621D01*
X75894Y-57797D01*
X75994Y-57947D01*
X76143Y-58046D01*
X76319Y-58081D01*
X76495Y-58046D01*
X76644Y-57947D01*
X76744Y-57797D01*
X76779Y-57621D01*
X76779Y-57318D01*
X76744Y-57142D01*
X76644Y-56993D01*
X76500Y-56896D01*
X77138Y-56896D01*
X76994Y-56993D01*
X76894Y-57142D01*
X76859Y-57318D01*
X76859Y-57621D01*
X76894Y-57797D01*
X76994Y-57947D01*
X77143Y-58046D01*
X77319Y-58081D01*
X77495Y-58046D01*
X77644Y-57947D01*
X77744Y-57797D01*
X77774Y-57649D01*
X77783Y-57654D01*
X77859Y-57670D01*
X77869Y-57670D01*
X77894Y-57797D01*
X77994Y-57947D01*
X78143Y-58046D01*
X78319Y-58081D01*
X78495Y-58046D01*
X78644Y-57947D01*
X78744Y-57797D01*
X78774Y-57649D01*
X78783Y-57654D01*
X78859Y-57670D01*
X78869Y-57670D01*
X78894Y-57797D01*
X78994Y-57947D01*
X79143Y-58046D01*
X79319Y-58081D01*
X79495Y-58046D01*
X79644Y-57947D01*
X79744Y-57797D01*
X79774Y-57649D01*
X79783Y-57654D01*
X79859Y-57670D01*
X79869Y-57670D01*
X79894Y-57797D01*
X79994Y-57947D01*
X80143Y-58046D01*
X80319Y-58081D01*
X80495Y-58046D01*
X80590Y-57983D01*
X80590Y-59326D01*
X79678Y-60238D01*
X79652Y-60276D01*
X79574Y-60198D01*
X79409Y-60130D01*
X79265Y-60129D01*
X77537Y-58401D01*
X77446Y-58341D01*
X77339Y-58319D01*
X69835Y-58319D01*
X69742Y-58226D01*
X69849Y-57969D01*
X69849Y-57591D01*
X69705Y-57242D01*
X69438Y-56975D01*
X69089Y-56830D01*
X68969Y-56829D01*
X68969Y-49029D01*
X68969Y-48330D01*
X68931Y-48238D01*
X68861Y-48168D01*
X68769Y-48129D01*
X68716Y-48129D01*
X68734Y-48065D01*
X68419Y-47750D01*
X68348Y-47821D01*
X68348Y-47679D01*
X68033Y-47364D01*
X67938Y-47392D01*
X67864Y-47598D01*
X67875Y-47816D01*
X67938Y-47967D01*
X68033Y-47995D01*
X68348Y-47679D01*
X68348Y-47821D01*
X68104Y-48065D01*
X68122Y-48129D01*
X68069Y-48129D01*
X67977Y-48168D01*
X67907Y-48238D01*
X67869Y-48330D01*
X67869Y-48567D01*
X67932Y-48629D01*
X68369Y-48629D01*
X68369Y-48622D01*
X68469Y-48622D01*
X68469Y-48629D01*
X68907Y-48629D01*
X68969Y-48567D01*
X68969Y-48330D01*
X68969Y-49029D01*
X68969Y-48792D01*
X68907Y-48729D01*
X68469Y-48729D01*
X68469Y-49167D01*
X68532Y-49229D01*
X68670Y-49229D01*
X68769Y-49229D01*
X68861Y-49191D01*
X68931Y-49121D01*
X68969Y-49029D01*
X68969Y-56829D01*
X68711Y-56829D01*
X68369Y-56971D01*
X68369Y-49167D01*
X68369Y-48729D01*
X67932Y-48729D01*
X67869Y-48792D01*
X67869Y-49029D01*
X67907Y-49121D01*
X67977Y-49191D01*
X68069Y-49229D01*
X68169Y-49229D01*
X68307Y-49229D01*
X68369Y-49167D01*
X68369Y-56971D01*
X68362Y-56974D01*
X68094Y-57241D01*
X67949Y-57590D01*
X67949Y-57968D01*
X68093Y-58317D01*
X68360Y-58584D01*
X68709Y-58729D01*
X69087Y-58730D01*
X69346Y-58623D01*
X69521Y-58797D01*
X69521Y-58797D01*
X69582Y-58838D01*
X69612Y-58858D01*
X69612Y-58858D01*
X69719Y-58879D01*
X77223Y-58879D01*
X78519Y-60175D01*
X78409Y-60130D01*
X78230Y-60129D01*
X78065Y-60198D01*
X77938Y-60324D01*
X77895Y-60428D01*
X77846Y-60395D01*
X77769Y-60379D01*
X77769Y-60379D01*
X77769Y-60250D01*
X77746Y-60195D01*
X77704Y-60152D01*
X77649Y-60129D01*
X77589Y-60129D01*
X76989Y-60129D01*
X76934Y-60152D01*
X76892Y-60194D01*
X76869Y-60249D01*
X76869Y-60309D01*
X76869Y-60909D01*
X76892Y-60964D01*
X76934Y-61007D01*
X76989Y-61029D01*
X77049Y-61029D01*
X77649Y-61029D01*
X77704Y-61007D01*
X77746Y-60965D01*
X77750Y-60956D01*
X77965Y-61171D01*
X77965Y-61171D01*
X78009Y-61200D01*
X78030Y-61214D01*
X78030Y-61214D01*
X78107Y-61230D01*
X78107Y-61230D01*
X79535Y-61230D01*
X79611Y-61214D01*
X79676Y-61171D01*
X79961Y-60887D01*
X79961Y-60887D01*
X79990Y-60843D01*
X79999Y-60829D01*
X79999Y-60829D01*
X80248Y-60579D01*
X80243Y-60574D01*
X80314Y-60503D01*
X80319Y-60509D01*
X80634Y-60194D01*
X80607Y-60098D01*
X80442Y-60039D01*
X80931Y-59550D01*
X80931Y-59550D01*
X80960Y-59507D01*
X80974Y-59486D01*
X80974Y-59486D01*
X80989Y-59409D01*
X80990Y-59409D01*
X80990Y-57940D01*
X80994Y-57947D01*
X81143Y-58046D01*
X81319Y-58081D01*
X81495Y-58046D01*
X81644Y-57947D01*
X81744Y-57797D01*
X81779Y-57621D01*
X81779Y-57318D01*
X81744Y-57142D01*
X81644Y-56993D01*
X81599Y-56962D01*
X81599Y-56586D01*
X83140Y-55044D01*
X83143Y-55046D01*
X83319Y-55081D01*
X83495Y-55046D01*
X83644Y-54947D01*
X83744Y-54797D01*
X83779Y-54621D01*
X83779Y-54318D01*
X83744Y-54142D01*
X83644Y-53993D01*
X83599Y-53962D01*
X83599Y-53885D01*
X83618Y-53856D01*
X83618Y-53856D01*
X83639Y-53749D01*
X83639Y-53749D01*
X83639Y-52941D01*
X83719Y-52861D01*
X83784Y-52704D01*
X83784Y-52535D01*
X83720Y-52379D01*
X83600Y-52259D01*
X83444Y-52195D01*
X83275Y-52195D01*
X83119Y-52259D01*
X82999Y-52379D01*
X82934Y-52535D01*
X82934Y-52704D01*
X82999Y-52860D01*
X83079Y-52941D01*
X83079Y-53654D01*
X83060Y-53682D01*
X83039Y-53789D01*
X83039Y-53962D01*
X82994Y-53993D01*
X82894Y-54142D01*
X82872Y-54254D01*
X82817Y-54069D01*
X82680Y-53898D01*
X82487Y-53793D01*
X82456Y-53787D01*
X82369Y-53835D01*
X82369Y-54420D01*
X82377Y-54420D01*
X82377Y-54520D01*
X82369Y-54520D01*
X82369Y-54527D01*
X82269Y-54527D01*
X82269Y-54520D01*
X82261Y-54520D01*
X82261Y-54420D01*
X82269Y-54420D01*
X82269Y-53835D01*
X82183Y-53787D01*
X82151Y-53793D01*
X81959Y-53898D01*
X81821Y-54069D01*
X81767Y-54254D01*
X81744Y-54142D01*
X81644Y-53993D01*
X81519Y-53909D01*
X81519Y-53883D01*
X81874Y-53528D01*
X81915Y-53545D01*
X82084Y-53545D01*
X82240Y-53480D01*
X82360Y-53361D01*
X82424Y-53204D01*
X82425Y-53035D01*
X82360Y-52879D01*
X82241Y-52759D01*
X82084Y-52695D01*
X81915Y-52695D01*
X81874Y-52711D01*
X81752Y-52589D01*
X81924Y-52649D01*
X82132Y-52638D01*
X82272Y-52580D01*
X82297Y-52487D01*
X82000Y-52190D01*
X81994Y-52196D01*
X81923Y-52125D01*
X81929Y-52120D01*
X81923Y-52114D01*
X81994Y-52043D01*
X82000Y-52049D01*
X82005Y-52043D01*
X82076Y-52114D01*
X82070Y-52120D01*
X82367Y-52417D01*
X82460Y-52392D01*
X82529Y-52195D01*
X82518Y-51987D01*
X82477Y-51888D01*
X84725Y-51888D01*
X85331Y-52494D01*
X85314Y-52535D01*
X85314Y-52704D01*
X85379Y-52860D01*
X85498Y-52980D01*
X85654Y-53045D01*
X85823Y-53045D01*
X85865Y-53028D01*
X86340Y-53503D01*
X86405Y-53547D01*
X86405Y-53547D01*
X86418Y-53549D01*
X86482Y-53562D01*
X87927Y-53562D01*
X88239Y-53874D01*
X88143Y-53893D01*
X87994Y-53993D01*
X87894Y-54142D01*
X87859Y-54318D01*
X87859Y-54621D01*
X87894Y-54797D01*
X87994Y-54947D01*
X88143Y-55046D01*
X88319Y-55081D01*
X88495Y-55046D01*
X88644Y-54947D01*
X88744Y-54797D01*
X88774Y-54649D01*
X88783Y-54654D01*
X88859Y-54670D01*
X88859Y-54670D01*
X88859Y-54949D01*
X88882Y-55004D01*
X88924Y-55047D01*
X88979Y-55070D01*
X89039Y-55070D01*
X89659Y-55070D01*
X89714Y-55047D01*
X89756Y-55005D01*
X89779Y-54950D01*
X89779Y-54890D01*
X89779Y-58023D01*
X89779Y-58023D01*
X89779Y-57621D01*
X89779Y-57318D01*
X89744Y-57142D01*
X89644Y-56993D01*
X89495Y-56893D01*
X89319Y-56858D01*
X89143Y-56893D01*
X88994Y-56993D01*
X88894Y-57142D01*
X88859Y-57318D01*
X88859Y-57621D01*
X88894Y-57797D01*
X88994Y-57947D01*
X89143Y-58046D01*
X89319Y-58081D01*
X89495Y-58046D01*
X89644Y-57947D01*
X89744Y-57797D01*
X89779Y-57621D01*
X89779Y-58023D01*
X89663Y-58140D01*
X89544Y-58425D01*
X89544Y-58733D01*
X89662Y-59018D01*
X89880Y-59236D01*
X90164Y-59354D01*
X90473Y-59355D01*
X90758Y-59237D01*
X90976Y-59019D01*
X91094Y-58734D01*
X91094Y-58426D01*
X91094Y-59535D01*
X90150Y-60489D01*
X90150Y-60532D01*
X90140Y-60580D01*
X90140Y-61400D01*
X89769Y-61400D01*
X89769Y-60490D01*
X89701Y-60325D01*
X89574Y-60198D01*
X89409Y-60130D01*
X89230Y-60129D01*
X89065Y-60198D01*
X88938Y-60324D01*
X88869Y-60490D01*
X88869Y-60669D01*
X88937Y-60834D01*
X89064Y-60961D01*
X89229Y-61029D01*
X89408Y-61029D01*
X89574Y-60961D01*
X89700Y-60835D01*
X89769Y-60669D01*
X89769Y-60490D01*
X89769Y-61400D01*
X88779Y-61400D01*
X88779Y-57621D01*
X88779Y-57318D01*
X88744Y-57142D01*
X88644Y-56993D01*
X88495Y-56893D01*
X88319Y-56858D01*
X88143Y-56893D01*
X87994Y-56993D01*
X87894Y-57142D01*
X87859Y-57318D01*
X87859Y-57621D01*
X87894Y-57797D01*
X87994Y-57947D01*
X88143Y-58046D01*
X88319Y-58081D01*
X88495Y-58046D01*
X88644Y-57947D01*
X88744Y-57797D01*
X88779Y-57621D01*
X88779Y-61400D01*
X88769Y-61400D01*
X88769Y-60490D01*
X88701Y-60325D01*
X88574Y-60198D01*
X88409Y-60130D01*
X88230Y-60129D01*
X88065Y-60198D01*
X87938Y-60324D01*
X87869Y-60490D01*
X87869Y-60669D01*
X87937Y-60834D01*
X88064Y-60961D01*
X88229Y-61029D01*
X88408Y-61029D01*
X88574Y-60961D01*
X88700Y-60835D01*
X88769Y-60669D01*
X88769Y-60490D01*
X88769Y-61400D01*
X87779Y-61400D01*
X87779Y-57621D01*
X87779Y-57318D01*
X87779Y-54621D01*
X87779Y-54318D01*
X87744Y-54142D01*
X87644Y-53993D01*
X87495Y-53893D01*
X87319Y-53858D01*
X87143Y-53893D01*
X86994Y-53993D01*
X86894Y-54142D01*
X86859Y-54318D01*
X86859Y-54621D01*
X86894Y-54797D01*
X86994Y-54947D01*
X87143Y-55046D01*
X87319Y-55081D01*
X87495Y-55046D01*
X87644Y-54947D01*
X87744Y-54797D01*
X87779Y-54621D01*
X87779Y-57318D01*
X87744Y-57142D01*
X87644Y-56993D01*
X87495Y-56893D01*
X87319Y-56858D01*
X87143Y-56893D01*
X86994Y-56993D01*
X86894Y-57142D01*
X86859Y-57318D01*
X86859Y-57621D01*
X86894Y-57797D01*
X86994Y-57947D01*
X87143Y-58046D01*
X87319Y-58081D01*
X87495Y-58046D01*
X87644Y-57947D01*
X87744Y-57797D01*
X87779Y-57621D01*
X87779Y-61400D01*
X87769Y-61400D01*
X87769Y-60490D01*
X87701Y-60325D01*
X87574Y-60198D01*
X87409Y-60130D01*
X87230Y-60129D01*
X87065Y-60198D01*
X86938Y-60324D01*
X86869Y-60490D01*
X86869Y-60669D01*
X86937Y-60834D01*
X87064Y-60961D01*
X87229Y-61029D01*
X87408Y-61029D01*
X87574Y-60961D01*
X87700Y-60835D01*
X87769Y-60669D01*
X87769Y-60490D01*
X87769Y-61400D01*
X86779Y-61400D01*
X86779Y-57621D01*
X86779Y-57318D01*
X86779Y-54621D01*
X86779Y-54318D01*
X86744Y-54142D01*
X86644Y-53993D01*
X86495Y-53893D01*
X86319Y-53858D01*
X86143Y-53893D01*
X85994Y-53993D01*
X85894Y-54142D01*
X85859Y-54318D01*
X85859Y-54621D01*
X85894Y-54797D01*
X85994Y-54947D01*
X86143Y-55046D01*
X86319Y-55081D01*
X86495Y-55046D01*
X86644Y-54947D01*
X86744Y-54797D01*
X86779Y-54621D01*
X86779Y-57318D01*
X86744Y-57142D01*
X86644Y-56993D01*
X86495Y-56893D01*
X86319Y-56858D01*
X86143Y-56893D01*
X85994Y-56993D01*
X85894Y-57142D01*
X85859Y-57318D01*
X85859Y-57621D01*
X85894Y-57797D01*
X85994Y-57947D01*
X86143Y-58046D01*
X86319Y-58081D01*
X86495Y-58046D01*
X86644Y-57947D01*
X86744Y-57797D01*
X86779Y-57621D01*
X86779Y-61400D01*
X86769Y-61400D01*
X86769Y-60490D01*
X86701Y-60325D01*
X86574Y-60198D01*
X86409Y-60130D01*
X86230Y-60129D01*
X86065Y-60198D01*
X85938Y-60324D01*
X85869Y-60490D01*
X85869Y-60669D01*
X85937Y-60834D01*
X86064Y-60961D01*
X86229Y-61029D01*
X86408Y-61029D01*
X86574Y-60961D01*
X86700Y-60835D01*
X86769Y-60669D01*
X86769Y-60490D01*
X86769Y-61400D01*
X85779Y-61400D01*
X85779Y-57621D01*
X85779Y-57318D01*
X85779Y-54621D01*
X85779Y-54318D01*
X85744Y-54142D01*
X85644Y-53993D01*
X85495Y-53893D01*
X85319Y-53858D01*
X85143Y-53893D01*
X84994Y-53993D01*
X84894Y-54142D01*
X84889Y-54167D01*
X84889Y-52695D01*
X84878Y-52487D01*
X84820Y-52347D01*
X84727Y-52322D01*
X84656Y-52393D01*
X84656Y-52252D01*
X84632Y-52159D01*
X84435Y-52090D01*
X84227Y-52101D01*
X84087Y-52159D01*
X84062Y-52252D01*
X84359Y-52549D01*
X84656Y-52252D01*
X84656Y-52393D01*
X84430Y-52620D01*
X84727Y-52917D01*
X84820Y-52892D01*
X84889Y-52695D01*
X84889Y-54167D01*
X84859Y-54318D01*
X84859Y-54621D01*
X84894Y-54797D01*
X84994Y-54947D01*
X85143Y-55046D01*
X85319Y-55081D01*
X85495Y-55046D01*
X85644Y-54947D01*
X85744Y-54797D01*
X85779Y-54621D01*
X85779Y-57318D01*
X85744Y-57142D01*
X85644Y-56993D01*
X85495Y-56893D01*
X85319Y-56858D01*
X85143Y-56893D01*
X84994Y-56993D01*
X84894Y-57142D01*
X84859Y-57318D01*
X84859Y-57621D01*
X84894Y-57797D01*
X84994Y-57947D01*
X85143Y-58046D01*
X85319Y-58081D01*
X85495Y-58046D01*
X85644Y-57947D01*
X85744Y-57797D01*
X85779Y-57621D01*
X85779Y-61400D01*
X85769Y-61400D01*
X85769Y-60490D01*
X85701Y-60325D01*
X85574Y-60198D01*
X85409Y-60130D01*
X85230Y-60129D01*
X85065Y-60198D01*
X84938Y-60324D01*
X84869Y-60490D01*
X84869Y-60669D01*
X84937Y-60834D01*
X85064Y-60961D01*
X85229Y-61029D01*
X85408Y-61029D01*
X85574Y-60961D01*
X85700Y-60835D01*
X85769Y-60669D01*
X85769Y-60490D01*
X85769Y-61400D01*
X84779Y-61400D01*
X84779Y-57621D01*
X84779Y-57318D01*
X84779Y-54621D01*
X84779Y-54318D01*
X84744Y-54142D01*
X84656Y-54010D01*
X84656Y-52987D01*
X84359Y-52690D01*
X84289Y-52761D01*
X84289Y-52620D01*
X83992Y-52322D01*
X83899Y-52347D01*
X83829Y-52544D01*
X83841Y-52752D01*
X83899Y-52892D01*
X83992Y-52917D01*
X84289Y-52620D01*
X84289Y-52761D01*
X84062Y-52987D01*
X84087Y-53080D01*
X84284Y-53149D01*
X84492Y-53138D01*
X84632Y-53080D01*
X84656Y-52987D01*
X84656Y-54010D01*
X84644Y-53993D01*
X84495Y-53893D01*
X84319Y-53858D01*
X84143Y-53893D01*
X83994Y-53993D01*
X83894Y-54142D01*
X83859Y-54318D01*
X83859Y-54621D01*
X83894Y-54797D01*
X83994Y-54947D01*
X84143Y-55046D01*
X84319Y-55081D01*
X84495Y-55046D01*
X84644Y-54947D01*
X84744Y-54797D01*
X84779Y-54621D01*
X84779Y-57318D01*
X84744Y-57142D01*
X84644Y-56993D01*
X84495Y-56893D01*
X84319Y-56858D01*
X84143Y-56893D01*
X83994Y-56993D01*
X83894Y-57142D01*
X83872Y-57254D01*
X83817Y-57069D01*
X83680Y-56898D01*
X83487Y-56793D01*
X83456Y-56787D01*
X83369Y-56835D01*
X83369Y-57420D01*
X83377Y-57420D01*
X83377Y-57520D01*
X83369Y-57520D01*
X83369Y-58105D01*
X83456Y-58153D01*
X83487Y-58146D01*
X83680Y-58041D01*
X83817Y-57870D01*
X83872Y-57685D01*
X83894Y-57797D01*
X83994Y-57947D01*
X84143Y-58046D01*
X84319Y-58081D01*
X84495Y-58046D01*
X84644Y-57947D01*
X84744Y-57797D01*
X84779Y-57621D01*
X84779Y-61400D01*
X84769Y-61400D01*
X84769Y-60850D01*
X84769Y-60250D01*
X84746Y-60195D01*
X84704Y-60152D01*
X84649Y-60129D01*
X84589Y-60129D01*
X83989Y-60129D01*
X83934Y-60152D01*
X83892Y-60194D01*
X83869Y-60249D01*
X83869Y-60309D01*
X83869Y-60909D01*
X83892Y-60964D01*
X83934Y-61007D01*
X83989Y-61029D01*
X84049Y-61029D01*
X84649Y-61029D01*
X84704Y-61007D01*
X84746Y-60965D01*
X84769Y-60909D01*
X84769Y-60850D01*
X84769Y-61400D01*
X83269Y-61400D01*
X83269Y-58105D01*
X83269Y-57520D01*
X83261Y-57520D01*
X83261Y-57420D01*
X83269Y-57420D01*
X83269Y-56835D01*
X83183Y-56787D01*
X83151Y-56793D01*
X82959Y-56898D01*
X82821Y-57069D01*
X82767Y-57254D01*
X82744Y-57142D01*
X82644Y-56993D01*
X82495Y-56893D01*
X82319Y-56858D01*
X82143Y-56893D01*
X81994Y-56993D01*
X81894Y-57142D01*
X81859Y-57318D01*
X81859Y-57621D01*
X81894Y-57797D01*
X81994Y-57947D01*
X82143Y-58046D01*
X82319Y-58081D01*
X82495Y-58046D01*
X82644Y-57947D01*
X82744Y-57797D01*
X82767Y-57685D01*
X82821Y-57870D01*
X82959Y-58041D01*
X83151Y-58146D01*
X83183Y-58153D01*
X83269Y-58105D01*
X83269Y-61400D01*
X82769Y-61400D01*
X82769Y-60490D01*
X82701Y-60325D01*
X82574Y-60198D01*
X82409Y-60130D01*
X82230Y-60129D01*
X82065Y-60198D01*
X81938Y-60324D01*
X81869Y-60490D01*
X81869Y-60566D01*
X81863Y-60443D01*
X81800Y-60292D01*
X81705Y-60264D01*
X81634Y-60335D01*
X81634Y-60194D01*
X81607Y-60098D01*
X81401Y-60025D01*
X81182Y-60036D01*
X81031Y-60098D01*
X81004Y-60194D01*
X81319Y-60509D01*
X81634Y-60194D01*
X81634Y-60335D01*
X81390Y-60579D01*
X81705Y-60895D01*
X81800Y-60867D01*
X81870Y-60671D01*
X81937Y-60834D01*
X82064Y-60961D01*
X82229Y-61029D01*
X82408Y-61029D01*
X82574Y-60961D01*
X82700Y-60835D01*
X82769Y-60669D01*
X82769Y-60490D01*
X82769Y-61400D01*
X81634Y-61400D01*
X81634Y-60965D01*
X81319Y-60650D01*
X81248Y-60721D01*
X81248Y-60579D01*
X80933Y-60264D01*
X80838Y-60292D01*
X80821Y-60340D01*
X80800Y-60292D01*
X80705Y-60264D01*
X80390Y-60579D01*
X80705Y-60895D01*
X80800Y-60867D01*
X80818Y-60819D01*
X80838Y-60867D01*
X80933Y-60895D01*
X81248Y-60579D01*
X81248Y-60721D01*
X81004Y-60965D01*
X81031Y-61061D01*
X81237Y-61134D01*
X81456Y-61123D01*
X81607Y-61061D01*
X81634Y-60965D01*
X81634Y-61400D01*
X80634Y-61400D01*
X80634Y-60965D01*
X80319Y-60650D01*
X80004Y-60965D01*
X80031Y-61061D01*
X80237Y-61134D01*
X80456Y-61123D01*
X80607Y-61061D01*
X80634Y-60965D01*
X80634Y-61400D01*
X70594Y-61400D01*
X70594Y-60426D01*
X70477Y-60141D01*
X70259Y-59923D01*
X69974Y-59805D01*
X69666Y-59804D01*
X69381Y-59922D01*
X69163Y-60140D01*
X69044Y-60425D01*
X69044Y-60733D01*
X69162Y-61018D01*
X69380Y-61236D01*
X69664Y-61354D01*
X69973Y-61355D01*
X70258Y-61237D01*
X70476Y-61019D01*
X70594Y-60734D01*
X70594Y-60426D01*
X70594Y-61400D01*
X68771Y-61400D01*
X68771Y-59830D01*
X68768Y-59413D01*
X68614Y-59041D01*
X68466Y-58953D01*
X68396Y-59024D01*
X68396Y-58882D01*
X68307Y-58735D01*
X67920Y-58578D01*
X67591Y-58580D01*
X67591Y-57980D01*
X67588Y-57563D01*
X67434Y-57191D01*
X67286Y-57103D01*
X67216Y-57174D01*
X67216Y-57032D01*
X67127Y-56885D01*
X66740Y-56728D01*
X66323Y-56731D01*
X65951Y-56885D01*
X65863Y-57032D01*
X66539Y-57709D01*
X67216Y-57032D01*
X67216Y-57174D01*
X66610Y-57779D01*
X67286Y-58456D01*
X67434Y-58368D01*
X67591Y-57980D01*
X67591Y-58580D01*
X67503Y-58581D01*
X67216Y-58700D01*
X67216Y-58527D01*
X66539Y-57850D01*
X66468Y-57921D01*
X66468Y-57779D01*
X65792Y-57103D01*
X65645Y-57191D01*
X65488Y-57578D01*
X65491Y-57996D01*
X65645Y-58368D01*
X65792Y-58456D01*
X66468Y-57779D01*
X66468Y-57921D01*
X65863Y-58527D01*
X65951Y-58674D01*
X66338Y-58831D01*
X66756Y-58828D01*
X67127Y-58674D01*
X67216Y-58527D01*
X67216Y-58700D01*
X67131Y-58735D01*
X67043Y-58882D01*
X67719Y-59559D01*
X68396Y-58882D01*
X68396Y-59024D01*
X67790Y-59629D01*
X68466Y-60306D01*
X68614Y-60218D01*
X68771Y-59830D01*
X68771Y-61400D01*
X68396Y-61400D01*
X68396Y-60377D01*
X67719Y-59700D01*
X67648Y-59771D01*
X67648Y-59629D01*
X66972Y-58953D01*
X66825Y-59041D01*
X66668Y-59428D01*
X66671Y-59846D01*
X66825Y-60218D01*
X66972Y-60306D01*
X67648Y-59629D01*
X67648Y-59771D01*
X67043Y-60377D01*
X67131Y-60524D01*
X67518Y-60681D01*
X67936Y-60678D01*
X68307Y-60524D01*
X68396Y-60377D01*
X68396Y-61400D01*
X64499Y-61400D01*
X64499Y-40759D01*
X89645Y-40759D01*
X90140Y-41254D01*
X90140Y-45680D01*
X90154Y-45748D01*
X90160Y-45757D01*
X90160Y-45861D01*
X91140Y-46821D01*
X91140Y-59489D01*
M02*
